<svg width="35" height="35" viewBox="0 0 35 35" fill="none" xmlns="http://www.w3.org/2000/svg">
<path d="M26.2131 18.7844L18.1676 26.7755C15.4085 29.516 10.9351 29.516 8.17596 26.7755C5.41683 24.035 5.41683 19.5918 8.17595 16.8514L18.749 6.34977C20.4691 4.64123 23.2581 4.64123 24.9782 6.34977C26.6984 8.05832 26.6984 10.8284 24.9782 12.537L14.3885 23.0552C13.7004 23.7386 12.5848 23.7386 11.8968 23.0552C11.2087 22.3718 11.2087 21.2637 11.8968 20.5803L20.0044 12.5275L18.7585 11.2901L10.6509 19.3429C9.27479 20.7097 9.27479 22.9258 10.6509 24.2926C12.0271 25.6594 14.2582 25.6594 15.6343 24.2926L26.2241 13.7744C28.6323 11.3824 28.6323 7.5043 26.2241 5.11234C23.8159 2.72038 19.9114 2.72038 17.5031 5.11234L6.9301 15.6139C3.48291 19.0378 3.48291 24.5891 6.9301 28.013C10.3773 31.4368 15.9663 31.4368 19.4135 28.013L27.4589 20.0218L26.2131 18.7844Z" fill="black"/>
</svg>
