<svg width="38" height="31" viewBox="0 0 38 31" fill="none" xmlns="http://www.w3.org/2000/svg">
<path fill-rule="evenodd" clip-rule="evenodd" d="M13.7891 28.2031C12.3568 29.6615 10.4167 30.3906 7.96875 30.3906C5.52083 30.3906 3.58073 29.6615 2.14844 28.2031C0.716146 26.7448 0 24.7917 0 22.3438C0 18.5938 0.664062 15.2865 1.99219 12.4219C3.32031 9.55729 4.79167 7.21354 6.40625 5.39062C8.33333 3.25521 10.4688 1.45833 12.8125 0L14.375 2.34375C13.3333 3.38542 12.3698 4.50521 11.4844 5.70312C10.7552 6.74479 10.0391 7.99479 9.33594 9.45312C8.63281 10.9115 8.17708 12.5521 7.96875 14.375C10.4167 14.375 12.3568 15.0911 13.7891 16.5234C15.2214 17.9557 15.9375 19.8958 15.9375 22.3438C15.9375 24.7917 15.2214 26.7448 13.7891 28.2031ZM35.4297 28.2031C33.9974 29.6615 32.0573 30.3906 29.6094 30.3906C27.1615 30.3906 25.2083 29.6615 23.75 28.2031C22.2917 26.7448 21.5625 24.7917 21.5625 22.3438C21.5625 18.5938 22.2266 15.2865 23.5547 12.4219C24.8828 9.55729 26.3542 7.21354 27.9688 5.39062C29.8958 3.25521 32.0312 1.45833 34.375 0L35.9375 2.34375C34.8958 3.38542 33.9583 4.50521 33.125 5.70312C32.3958 6.74479 31.6797 7.99479 30.9766 9.45312C30.2734 10.9115 29.8177 12.5521 29.6094 14.375C32.0573 14.375 33.9974 15.0911 35.4297 16.5234C36.862 17.9557 37.5781 19.8958 37.5781 22.3438C37.5781 24.7917 36.862 26.7448 35.4297 28.2031Z" fill="black"/>
</svg>
