<svg width="19" height="18" viewBox="0 0 19 18" fill="none" xmlns="http://www.w3.org/2000/svg">
<path fill-rule="evenodd" clip-rule="evenodd" d="M2.98099 0C4.16345 0 5.12368 0.960231 5.12368 2.14338C5.12368 3.32723 4.16345 4.28746 2.98099 4.28746C1.79368 4.28746 0.836914 3.32723 0.836914 2.14338C0.836914 0.960231 1.79368 0 2.98099 0ZM1.13045 5.91231H4.83015V17.8062H1.13045V5.91231ZM10.6109 5.83338H7.06768V17.7272H10.7598V11.8447C10.7598 10.2925 11.0533 8.78954 12.9765 8.78954C14.8735 8.78954 14.8977 10.5639 14.8977 11.943V17.7272H18.5932V11.2043C18.5932 8.001 17.9016 5.53846 14.1597 5.53846C12.3611 5.53846 11.1544 6.52431 10.6615 7.45962H10.6109V5.83338Z" fill="black"/>
</svg>
