<svg width="25" height="24" viewBox="0 0 25 24" fill="none" xmlns="http://www.w3.org/2000/svg">
<path fill-rule="evenodd" clip-rule="evenodd" d="M12.841 0C9.58296 0 9.17444 0.01381 7.89492 0.072191C6.61806 0.130429 5.74601 0.333239 4.98296 0.62981C4.19411 0.936334 3.52511 1.34652 2.85816 2.01343C2.19125 2.68038 1.78106 3.34938 1.47454 4.13824C1.17796 4.90129 0.975156 5.77333 0.916917 7.05019C0.858537 8.32971 0.844727 8.73824 0.844727 11.9962C0.844727 15.2542 0.858537 15.6627 0.916917 16.9422C0.975156 18.2191 1.17796 19.0911 1.47454 19.8542C1.78106 20.643 2.19125 21.312 2.85816 21.979C3.52511 22.6459 4.19411 23.0561 4.98296 23.3627C5.74601 23.6592 6.61806 23.862 7.89492 23.9202C9.17444 23.9786 9.58296 23.9924 12.841 23.9924C16.0989 23.9924 16.5074 23.9786 17.787 23.9202C19.0638 23.862 19.9359 23.6592 20.6989 23.3627C21.4878 23.0561 22.1568 22.6459 22.8237 21.979C23.4906 21.312 23.9008 20.643 24.2074 19.8542C24.5039 19.0911 24.7067 18.2191 24.765 16.9422C24.8233 15.6627 24.8372 15.2542 24.8372 11.9962C24.8372 8.73824 24.8233 8.32971 24.765 7.05019C24.7067 5.77333 24.5039 4.90129 24.2074 4.13824C23.9008 3.34938 23.4906 2.68038 22.8237 2.01343C22.1568 1.34652 21.4878 0.936334 20.6989 0.62981C19.9359 0.333239 19.0638 0.130429 17.787 0.072191C16.5074 0.01381 16.0989 0 12.841 0ZM12.841 2.16148C16.0441 2.16148 16.4235 2.17372 17.6884 2.23143C18.8581 2.28476 19.4932 2.48019 19.916 2.64448C20.4759 2.8621 20.8755 3.12205 21.2953 3.54186C21.7151 3.96162 21.9751 4.36124 22.1927 4.92119C22.357 5.3439 22.5524 5.9791 22.6057 7.14872C22.6634 8.41367 22.6757 8.7931 22.6757 11.9962C22.6757 15.1993 22.6634 15.5788 22.6057 16.8437C22.5524 18.0133 22.357 18.6485 22.1927 19.0712C21.9751 19.6312 21.7151 20.0308 21.2953 20.4506C20.8755 20.8704 20.4759 21.1303 19.916 21.348C19.4932 21.5122 18.8581 21.7077 17.6884 21.761C16.4237 21.8187 16.0443 21.831 12.841 21.831C9.63758 21.831 9.25825 21.8187 7.99344 21.761C6.82382 21.7077 6.18863 21.5122 5.76592 21.348C5.20596 21.1303 4.80635 20.8704 4.38658 20.4506C3.96682 20.0308 3.70682 19.6312 3.4892 19.0712C3.32492 18.6485 3.12949 18.0133 3.07616 16.8437C3.01844 15.5788 3.0062 15.1993 3.0062 11.9962C3.0062 8.7931 3.01844 8.41367 3.07616 7.14872C3.12949 5.9791 3.32492 5.3439 3.4892 4.92119C3.70682 4.36124 3.96677 3.96162 4.38658 3.54186C4.80635 3.12205 5.20596 2.8621 5.76592 2.64448C6.18863 2.48019 6.82382 2.28476 7.99344 2.23143C9.25839 2.17372 9.63782 2.16148 12.841 2.16148ZM8.8422 11.9962C8.8422 14.2047 10.6325 15.995 12.841 15.995C15.0494 15.995 16.8397 14.2047 16.8397 11.9962C16.8397 9.78776 15.0494 7.99748 12.841 7.99748C10.6325 7.99748 8.8422 9.78776 8.8422 11.9962ZM12.841 5.836C9.43873 5.836 6.68073 8.594 6.68073 11.9962C6.68073 15.3984 9.43873 18.1564 12.841 18.1564C16.2432 18.1564 19.0012 15.3984 19.0012 11.9962C19.0012 8.594 16.2432 5.836 12.841 5.836ZM19.2445 4.15305C20.0396 4.15305 20.6841 4.79757 20.6841 5.59262C20.6841 6.38767 20.0396 7.03214 19.2445 7.03214C18.4495 7.03214 17.805 6.38767 17.805 5.59262C17.805 4.79757 18.4495 4.15305 19.2445 4.15305Z" fill="black"/>
</svg>
