<svg width="23" height="19" viewBox="0 0 23 19" fill="none" xmlns="http://www.w3.org/2000/svg">
<path d="M7.18434 18.566C15.8054 18.566 20.5199 11.4238 20.5199 5.23045C20.5199 5.02759 20.5157 4.82565 20.5066 4.62462C21.4218 3.96304 22.2172 3.13744 22.8446 2.19761C22.0048 2.57089 21.101 2.82218 20.153 2.93549C21.1207 2.35523 21.8636 1.43735 22.214 0.343124C21.3085 0.879971 20.3056 1.27016 19.2379 1.48081C18.3826 0.569803 17.1649 0 15.8167 0C13.2284 0 11.1294 2.09899 11.1294 4.68629C11.1294 5.05408 11.1706 5.41183 11.251 5.75499C7.35558 5.55898 3.90142 3.69394 1.58971 0.858039C1.18719 1.55068 0.955089 2.35526 0.955089 3.21376C0.955089 4.83984 1.78254 6.27534 3.04081 7.11514C2.27185 7.09138 1.5495 6.8803 0.918139 6.52895C0.917449 6.54861 0.917449 6.56778 0.917449 6.5888C0.917449 8.85866 2.53303 10.7538 4.67763 11.1833C4.28379 11.2906 3.86942 11.3482 3.44174 11.3482C3.14019 11.3482 2.84641 11.3185 2.56086 11.2637C3.15755 13.1259 4.88783 14.4811 6.93921 14.519C5.33505 15.7763 3.31426 16.5252 1.11799 16.5252C0.740138 16.5252 0.366865 16.5037 0 16.4603C2.0743 17.7899 4.53734 18.5657 7.18459 18.5657" fill="black"/>
</svg>
