<svg width="21" height="20" viewBox="0 0 21 20" fill="none" xmlns="http://www.w3.org/2000/svg">
<path fill-rule="evenodd" clip-rule="evenodd" d="M14.3874 19.9921H19.4819C20.0912 19.9921 20.5852 19.4981 20.5852 18.8888V1.10345C20.5852 0.493933 20.0912 0 19.4819 0H1.69663C1.08712 0 0.593262 0.493933 0.593262 1.10345V18.8888C0.593262 19.4981 1.08712 19.9921 1.69663 19.9921H11.2716V12.2502H8.66632V9.23296H11.2716V7.00786C11.2716 4.42562 12.8486 3.01955 15.1522 3.01955C16.2556 3.01955 17.204 3.10172 17.4804 3.13843V5.837L15.8826 5.83768C14.6299 5.83768 14.3874 6.43303 14.3874 7.30659V9.23296H17.3752L16.9861 12.2502H14.3874V19.9921Z" fill="black"/>
</svg>
