<svg width="16" height="16" viewBox="0 0 16 16" fill="none" xmlns="http://www.w3.org/2000/svg">
<g clip-path="url(#clip0)">
<path d="M8.3746 3.74285C9.40815 3.74285 10.246 2.90498 10.246 1.87142C10.246 0.837865 9.40815 0 8.3746 0C7.34104 0 6.50317 0.837865 6.50317 1.87142C6.50317 2.90498 7.34104 3.74285 8.3746 3.74285Z" fill="#929AB5"/>
<path d="M8.37462 16C8.99469 16 9.49736 15.4973 9.49736 14.8772C9.49736 14.2572 8.99469 13.7545 8.37462 13.7545C7.75456 13.7545 7.25189 14.2572 7.25189 14.8772C7.25189 15.4973 7.75456 16 8.37462 16Z" fill="#929AB5"/>
<path d="M3.7762 5.45999C4.70647 5.45999 5.4606 4.70586 5.4606 3.77559C5.4606 2.84532 4.70647 2.09119 3.7762 2.09119C2.84593 2.09119 2.0918 2.84532 2.0918 3.77559C2.0918 4.70586 2.84593 5.45999 3.7762 5.45999Z" fill="#929AB5"/>
<path d="M12.9731 13.9076C13.4898 13.9076 13.9088 13.4886 13.9088 12.9718C13.9088 12.4551 13.4898 12.0361 12.9731 12.0361C12.4563 12.0361 12.0374 12.4551 12.0374 12.9718C12.0374 13.4886 12.4563 13.9076 12.9731 13.9076Z" fill="#929AB5"/>
<path d="M1.87141 9.87136C2.69805 9.87136 3.36818 9.20123 3.36818 8.37458C3.36818 7.54794 2.69805 6.87781 1.87141 6.87781C1.04476 6.87781 0.374634 7.54794 0.374634 8.37458C0.374634 9.20123 1.04476 9.87136 1.87141 9.87136Z" fill="#929AB5"/>
<path d="M14.8772 9.12214C15.2904 9.12214 15.6253 8.78722 15.6253 8.37406C15.6253 7.96091 15.2904 7.62598 14.8772 7.62598C14.4641 7.62598 14.1292 7.96091 14.1292 8.37406C14.1292 8.78722 14.4641 9.12214 14.8772 9.12214Z" fill="#929AB5"/>
<path d="M2.85022 12.0471C2.33834 12.559 2.33834 13.3872 2.85022 13.8991C3.36149 14.4109 4.19094 14.4109 4.70221 13.8991C5.21409 13.3872 5.21409 12.559 4.70221 12.0471C4.19094 11.5346 3.3621 11.5297 2.85022 12.0471Z" fill="#929AB5"/>
<path d="M12.9724 4.33672C13.2823 4.33672 13.5335 4.08553 13.5335 3.77566C13.5335 3.4658 13.2823 3.2146 12.9724 3.2146C12.6626 3.2146 12.4114 3.4658 12.4114 3.77566C12.4114 4.08553 12.6626 4.33672 12.9724 4.33672Z" fill="#929AB5"/>
</g>
<defs>
<clipPath id="clip0">
<rect width="15.9994" height="16" fill="white"/>
</clipPath>
</defs>
</svg>
