<svg width="18" height="12" viewBox="0 0 18 12" fill="none" xmlns="http://www.w3.org/2000/svg">
<path d="M17.6959 1.39157C17.9764 1.45192 18.0688 1.78572 17.948 2.01292C17.8663 2.17273 17.774 2.3289 17.6852 2.48515C17.6781 2.59523 17.6319 2.69818 17.5325 2.75852C16.7478 4.13972 15.8495 5.44632 14.827 6.67128C14.8234 6.67484 14.8164 6.67841 14.8128 6.68545C15.9916 7.49853 18.8108 9.5756 17.4332 10.7438C16.7124 11.358 14.6247 11.255 13.8151 10.9071C13.35 10.7082 12.9274 10.3568 12.5298 10.0443C11.8374 9.501 11.6421 9.53299 11.0208 10.1117C10.2219 10.8573 9.77807 11.3296 8.59929 11.1946C7.2146 11.0348 5.88313 10.2643 4.82504 9.39805C2.60241 7.56956 0.603431 4.49831 0.00695063 1.66851C-0.0392185 1.44836 0.148944 1.27793 0.330057 1.27437C0.340747 1.27081 0.344233 1.26724 0.354923 1.26368C1.43432 1.07195 2.64502 1.02578 3.73503 1.14647C3.83798 1.15716 3.91614 1.19977 3.97649 1.25299C4.00492 1.26368 4.03683 1.28142 4.0617 1.31333C4.92807 2.33246 5.31152 3.67811 6.21336 4.66873C6.65011 5.14808 6.79211 5.06992 6.83827 4.40953C6.85958 4.12547 6.85958 3.84148 6.8454 3.55742C6.8028 2.81538 6.53291 2.1656 6.41934 1.44479C6.40161 1.34184 6.42291 1.2495 6.46908 1.17142C6.49394 1.01873 6.6182 0.873178 6.79931 0.848312C7.85384 0.709805 8.96872 0.837699 10.0374 0.805706C10.1937 0.7631 10.3179 0.823446 10.3996 0.92996C10.4742 0.951263 10.5416 1.00448 10.5629 1.10038C10.7191 1.76077 10.7049 2.39281 10.6942 3.06737C10.6871 3.38335 10.6801 3.7029 10.6729 4.01895C10.6658 4.20007 10.6658 4.3811 10.6658 4.56222C10.5948 4.89601 10.7262 5.02383 11.0564 4.94567C11.6138 5.00601 11.7665 4.54448 12.0399 4.11842C12.2032 3.86635 12.3594 3.60715 12.5086 3.34439C12.8565 2.72661 13.1157 2.07683 13.4388 1.44836C13.4956 1.33115 13.5951 1.27793 13.698 1.26376C13.7299 1.24602 13.7691 1.23533 13.8081 1.23176C15.0792 1.20333 16.4462 1.12525 17.6959 1.39157Z" fill="white"/>
</svg>
