<svg width="16" height="16" viewBox="0 0 16 16" fill="none" xmlns="http://www.w3.org/2000/svg">
<g clip-path="url(#clip0)">
<path d="M10.4688 9.14451C10.4688 9.86324 11.0535 10.448 11.7722 10.448H15.9997V7.84106H11.7722C11.0535 7.8411 10.4688 8.42581 10.4688 9.14451ZM12.485 9.1828C12.485 9.47299 12.2497 9.70824 11.9595 9.70824C11.6693 9.70824 11.4341 9.47299 11.4341 9.1828C11.4341 8.89261 11.6693 8.65736 11.9595 8.65736C12.2497 8.65739 12.485 8.89264 12.485 9.1828Z" fill="#5F658E"/>
<path d="M11.7725 11.4573C10.4972 11.4573 9.45968 10.4198 9.45968 9.1445C9.45968 7.86922 10.4972 6.83168 11.7725 6.83168H16V5.07039C16 3.87898 15.0307 2.9097 13.8393 2.9097H2.16069C0.969281 2.9097 0 3.87898 0 5.07039V13.1559C0 14.3473 0.969281 15.3166 2.16069 15.3166H13.8393C15.0308 15.3166 16 14.3473 16 13.1559V11.4573H11.7725Z" fill="#5F658E"/>
<path d="M2.16024 1.9003C14.8548 1.9003 13.945 1.88983 14.2238 1.92371C13.8775 1.19141 13.1318 0.683441 12.2695 0.683441H2.16024C1.00013 0.683441 0.0510339 1.60257 0.00195312 2.75079C0.568274 2.22346 1.32716 1.9003 2.16024 1.9003Z" fill="#5F658E"/>
</g>
<defs>
<clipPath id="clip0">
<rect width="16" height="16" fill="white"/>
</clipPath>
</defs>
</svg>
