<?xml version="1.0" encoding="utf-8"?>
<!-- Generator: Adobe Illustrator 24.1.1, SVG Export Plug-In . SVG Version: 6.00 Build 0)  -->
<svg version="1.1" id="Слой_1" xmlns="http://www.w3.org/2000/svg" xmlns:xlink="http://www.w3.org/1999/xlink" x="0px" y="0px"
	 viewBox="0 0 612 792" style="enable-background:new 0 0 612 792;" xml:space="preserve">
<style type="text/css">
	.st0{fill:url(#SVGID_1_);}
	.st1{fill:url(#SVGID_2_);}
	.st2{fill:url(#SVGID_3_);}
</style>
<linearGradient id="SVGID_1_" gradientUnits="userSpaceOnUse" x1="205.2733" y1="665.9643" x2="547.8539" y2="282.7385">
	<stop  offset="0" style="stop-color:#930784"/>
	<stop  offset="1" style="stop-color:#3D87ED"/>
</linearGradient>
<path class="st0" d="M479.3,573h-16.45V334.15c0-11.12-9.04-20.16-20.16-20.16h-36.77c-11.12,0-20.16,9.04-20.16,20.16V573h-41.77
	V442.37c0-11.12-9.04-20.16-20.16-20.16h-36.77c-11.12,0-20.16,9.05-20.16,20.16V573h-41.77v-67.65c0-11.12-9.04-20.16-20.16-20.16
	H168.2c-11.12,0-20.16,9.05-20.16,20.16V573H130.7c-4.14,0-7.5,3.36-7.5,7.5s3.36,7.5,7.5,7.5h348.6c4.14,0,7.5-3.36,7.5-7.5
	S483.44,573,479.3,573L479.3,573z M210.13,573h-47.09v-67.65c0-2.85,2.32-5.16,5.16-5.16h36.77c2.85,0,5.16,2.32,5.16,5.16V573z
	 M328.99,573H281.9V442.37c0-2.84,2.32-5.16,5.16-5.16h36.77c2.84,0,5.16,2.32,5.16,5.16V573z M447.85,573h-47.09V334.15
	c0-2.85,2.32-5.16,5.16-5.16h36.77c2.85,0,5.16,2.31,5.16,5.16V573z M447.85,573"/>
<linearGradient id="SVGID_2_" gradientUnits="userSpaceOnUse" x1="105.0577" y1="576.3776" x2="447.6383" y2="193.1517">
	<stop  offset="0" style="stop-color:#930784"/>
	<stop  offset="1" style="stop-color:#3D87ED"/>
</linearGradient>
<path class="st1" d="M462.83,211.89c0.11-2.05-0.62-4.13-2.18-5.69c-1.56-1.56-3.64-2.28-5.69-2.18c-0.12-0.01-0.24-0.02-0.36-0.02
	h-45.38c-4.14,0-7.5,3.36-7.5,7.5s3.36,7.5,7.5,7.5h28.02l-74.14,74.14l-27.96-27.96c-1.41-1.41-3.32-2.2-5.31-2.2
	c-1.99,0-3.9,0.79-5.3,2.2L189.71,400.01c-2.93,2.93-2.93,7.68,0,10.61c1.47,1.46,3.38,2.2,5.3,2.2c1.92,0,3.84-0.73,5.3-2.2
	l129.52-129.52l27.96,27.96c2.93,2.93,7.68,2.93,10.61,0l79.45-79.45v25.36c0,4.14,3.36,7.5,7.5,7.5c4.14,0,7.5-3.36,7.5-7.5v-42.71
	C462.85,212.13,462.84,212.01,462.83,211.89L462.83,211.89z M462.83,211.89"/>
<linearGradient id="SVGID_3_" gradientUnits="userSpaceOnUse" x1="69.0098" y1="544.1529" x2="411.5904" y2="160.9271">
	<stop  offset="0" style="stop-color:#930784"/>
	<stop  offset="1" style="stop-color:#3D87ED"/>
</linearGradient>
<path class="st2" d="M177.23,431.48c0,4.14-3.36,7.5-7.5,7.5c-4.14,0-7.5-3.36-7.5-7.5c0-4.14,3.36-7.5,7.5-7.5
	C173.87,423.98,177.23,427.34,177.23,431.48L177.23,431.48z M177.23,431.48"/>
</svg>
