<?xml version="1.0" encoding="utf-8"?>
<!-- Generator: Adobe Illustrator 24.1.1, SVG Export Plug-In . SVG Version: 6.00 Build 0)  -->
<svg version="1.1" id="Слой_1" xmlns="http://www.w3.org/2000/svg" xmlns:xlink="http://www.w3.org/1999/xlink" x="0px" y="0px"
	 viewBox="0 0 612 792" style="enable-background:new 0 0 612 792;" xml:space="preserve">
<style type="text/css">
	.st0{fill:url(#SVGID_1_);}
	.st1{fill:url(#SVGID_2_);}
	.st2{fill:url(#SVGID_3_);}
	.st3{fill:url(#SVGID_4_);}
	.st4{fill:url(#SVGID_5_);}
	.st5{fill:url(#SVGID_6_);}
</style>
<g>
	<linearGradient id="SVGID_1_" gradientUnits="userSpaceOnUse" x1="127.4069" y1="605.6835" x2="499.4069" y2="287.6835">
		<stop  offset="0" style="stop-color:#930784"/>
		<stop  offset="1" style="stop-color:#3D87ED"/>
	</linearGradient>
	<path class="st0" d="M488.64,526.35H337.93c-4.14,0-7.5,3.36-7.5,7.5c0,6.89-5.61,12.5-12.5,12.5h-24.92
		c-6.89,0-12.5-5.61-12.5-12.5c0-4.14-3.36-7.5-7.5-7.5H155.92V333.63c0-8.62,7.01-15.63,15.63-15.63h93.54l0.07,0.66l-15.59,14.71
		c-0.05,0.05-0.1,0.1-0.15,0.15c-13.62,13.62-21.13,31.73-21.13,50.99V418c0,2.96,1.75,5.65,4.45,6.85
		c0.98,0.44,2.01,0.65,3.05,0.65c1.82,0,3.62-0.66,5.03-1.93l32.82-29.61c0.95,1.62,2.48,2.86,4.34,3.41
		c8.81,2.6,17.94,3.94,27.13,3.97c0.11,0,0.22,0,0.33,0c9.3,0,18.54-1.34,27.46-3.97c1.92-0.57,3.48-1.88,4.42-3.57l32.99,29.77
		c1.41,1.27,3.2,1.93,5.02,1.93c1.03,0,2.07-0.21,3.05-0.65c2.71-1.2,4.45-3.89,4.45-6.85v-33.49c0-19.26-7.5-37.37-21.12-51
		l-14.41-14.41l0.14-1.11h92.14c8.62,0,15.63,7.01,15.63,15.63v137.51c0,4.14,3.36,7.5,7.5,7.5c4.14,0,7.5-3.36,7.5-7.5V333.63
		c0-16.89-13.74-30.63-30.63-30.63h-90.4c2.63-34.13-8.84-67.84-31.96-93.34l-1.32-1.45c-2.43-2.68-5.88-4.2-9.48-4.2
		c-0.03,0-0.06,0-0.09,0c-3.64,0.03-7.11,1.61-9.52,4.34l-2.48,2.82c-22.16,25.18-33.26,58.47-30.74,91.83h-92.03
		c-16.89,0-30.63,13.74-30.63,30.63v192.72H122.5c-4.14,0-7.5,3.36-7.5,7.5v11.69c0,23.41,19.05,42.46,42.46,42.46h296.22
		c23.41,0,42.46-19.05,42.46-42.46v-11.69C496.14,529.7,492.78,526.35,488.64,526.35L488.64,526.35z M341.35,366.34l3.58-28.4
		l6.18,6.18c10.79,10.79,16.73,25.13,16.73,40.39v16.62l-27.73-25.02L341.35,366.34z M305.58,221.08l0.86-0.98
		c21.31,23.72,31.24,55.43,27.25,87.08l-1.72,13.67c0,0,0,0.01,0,0.02l-7.22,57.25c0,0,0,0,0,0l-0.77,6.09
		c-6.07,1.41-12.28,2.12-18.53,2.12c-0.09,0-0.19,0-0.28,0c-6.11-0.02-12.19-0.72-18.13-2.09l-5.91-57.04l-0.66-6.42l-1.65-15.9
		C275.66,274.54,285.42,243.98,305.58,221.08L305.58,221.08z M271.1,376.04l-27.8,25.09v-16.62c0-15.22,5.91-29.54,16.66-40.32
		l7.15-6.75L271.1,376.04z M453.68,573H157.46c-15.14,0-27.46-12.32-27.46-27.46v-4.19h136.55c3.27,11.53,13.9,20,26.46,20h24.92
		c12.56,0,23.18-8.47,26.46-20h136.75v4.19h0C481.14,560.68,468.82,573,453.68,573L453.68,573z M453.68,573"/>
	<linearGradient id="SVGID_2_" gradientUnits="userSpaceOnUse" x1="112.6308" y1="588.3983" x2="484.6308" y2="270.3983">
		<stop  offset="0" style="stop-color:#930784"/>
		<stop  offset="1" style="stop-color:#3D87ED"/>
	</linearGradient>
	<path class="st1" d="M432.21,334.74h-37.76c-4.14,0-7.5,3.36-7.5,7.5c0,4.14,3.36,7.5,7.5,7.5h30.26v145.3H188.94v-145.3h23.79
		c4.14,0,7.5-3.36,7.5-7.5c0-4.14-3.36-7.5-7.5-7.5h-31.29c-4.14,0-7.5,3.36-7.5,7.5v160.3c0,4.14,3.36,7.5,7.5,7.5H432.2
		c4.14,0,7.5-3.36,7.5-7.5v-160.3C439.71,338.1,436.35,334.74,432.21,334.74L432.21,334.74z M432.21,334.74"/>
	<linearGradient id="SVGID_3_" gradientUnits="userSpaceOnUse" x1="43.3385" y1="507.3394" x2="415.3385" y2="189.3394">
		<stop  offset="0" style="stop-color:#930784"/>
		<stop  offset="1" style="stop-color:#3D87ED"/>
	</linearGradient>
	<path class="st2" d="M313.07,283.18c0,4.14-3.35,7.5-7.5,7.5c-4.14,0-7.5-3.36-7.5-7.5c0-4.14,3.36-7.5,7.5-7.5
		C309.71,275.68,313.07,279.04,313.07,283.18L313.07,283.18z M313.07,283.18"/>
	<linearGradient id="SVGID_4_" gradientUnits="userSpaceOnUse" x1="218.6709" y1="712.4452" x2="590.6709" y2="394.4452">
		<stop  offset="0" style="stop-color:#930784"/>
		<stop  offset="1" style="stop-color:#3D87ED"/>
	</linearGradient>
	<path class="st3" d="M470.21,503.83c0,4.14-3.36,7.5-7.5,7.5c-4.14,0-7.5-3.36-7.5-7.5c0-4.14,3.36-7.5,7.5-7.5
		C466.86,496.33,470.21,499.68,470.21,503.83L470.21,503.83z M470.21,503.83"/>
	<linearGradient id="SVGID_5_" gradientUnits="userSpaceOnUse" x1="110.0935" y1="585.4301" x2="482.0935" y2="267.4301">
		<stop  offset="0" style="stop-color:#930784"/>
		<stop  offset="1" style="stop-color:#3D87ED"/>
	</linearGradient>
	<path class="st4" d="M286.07,412.24c-4.15,0-7.5,3.36-7.5,7.5v30.53c0,4.14,3.35,7.5,7.5,7.5c4.14,0,7.5-3.36,7.5-7.5v-30.53
		C293.57,415.6,290.21,412.24,286.07,412.24L286.07,412.24z M286.07,412.24"/>
	<linearGradient id="SVGID_6_" gradientUnits="userSpaceOnUse" x1="128.901" y1="607.4314" x2="500.901" y2="289.4314">
		<stop  offset="0" style="stop-color:#930784"/>
		<stop  offset="1" style="stop-color:#3D87ED"/>
	</linearGradient>
	<path class="st5" d="M324.17,410.5c-4.14,0-7.5,3.36-7.5,7.5v45.02c0,4.14,3.36,7.5,7.5,7.5c4.14,0,7.5-3.36,7.5-7.5V418
		C331.67,413.86,328.31,410.5,324.17,410.5L324.17,410.5z M324.17,410.5"/>
</g>
</svg>
