<svg width="80" height="85" viewBox="0 0 80 85" fill="none" xmlns="http://www.w3.org/2000/svg">
<path d="M73.8234 0H6.17636C2.77066 0 0 2.39027 0 5.32839V58.3659C0 61.3041 2.77066 63.6943 6.17636 63.6943H50.7958C51.5929 63.6943 52.2391 63.1369 52.2391 62.4492C52.2391 61.7616 51.5929 61.2041 50.7958 61.2041H6.17636C4.36229 61.2041 2.88651 59.931 2.88651 58.3659V13.1344H77.1135V58.3659C77.1135 59.931 75.6377 61.2041 73.8236 61.2041C73.0266 61.2041 72.3804 61.7616 72.3804 62.4492C72.3804 63.1369 73.0266 63.6943 73.8236 63.6943C77.2293 63.6943 80 61.3041 80 58.3659V5.32839C79.9998 2.39027 77.2291 0 73.8234 0V0ZM2.88651 10.6442V5.32839C2.88651 3.76338 4.36229 2.49021 6.17636 2.49021H73.8234C75.6375 2.49021 77.1133 3.76338 77.1133 5.32839V10.6442H2.88651Z" fill="url(#paint0_linear)"/>
<path d="M9.15457 5.32199H7.61221C6.81514 5.32199 6.16895 5.87947 6.16895 6.5671C6.16895 7.25474 6.81514 7.81221 7.61221 7.81221H9.15457C9.95164 7.81221 10.5978 7.25474 10.5978 6.5671C10.5978 5.87947 9.95183 5.32199 9.15457 5.32199Z" fill="#457EE2"/>
<path d="M16.8665 5.32199H15.3241C14.5271 5.32199 13.8809 5.87947 13.8809 6.5671C13.8809 7.25474 14.5271 7.81221 15.3241 7.81221H16.8665C17.6636 7.81221 18.3097 7.25474 18.3097 6.5671C18.3097 5.87947 17.6636 5.32199 16.8665 5.32199Z" fill="#457EE2"/>
<path d="M72.3876 5.32199H23.0351C22.238 5.32199 21.5918 5.87947 21.5918 6.5671C21.5918 7.25473 22.238 7.8122 23.0351 7.8122H72.3876C73.1847 7.8122 73.8309 7.25473 73.8309 6.5671C73.8309 5.87947 73.1847 5.32199 72.3876 5.32199Z" fill="#457EE2"/>
<path d="M58.2957 55.3143C57.8613 54.9424 57.2022 54.8473 56.6515 55.0769C56.1004 55.3065 55.7773 55.8109 55.8448 56.3356L58.9155 80.1754C58.9763 80.648 59.344 81.0494 59.8628 81.21C60.0218 81.2591 60.1863 81.283 60.3497 81.283C60.7194 81.283 61.0823 81.1603 61.3563 80.9302L66.9123 76.2667L71.4076 84.2958C71.6566 84.7406 72.1717 84.9998 72.7082 84.9998C72.9188 84.9998 73.1328 84.9597 73.3348 84.8754C74.0526 84.5764 74.3534 83.8318 74.0068 83.2128L69.5115 75.1835L77.1997 74.3285C77.7464 74.2677 78.2051 73.9435 78.3822 73.4931C78.559 73.0427 78.423 72.5447 78.0318 72.2098L58.2957 55.3143ZM67.1563 72.9348C66.8467 72.9693 66.5582 73.0895 66.3344 73.2773L61.4583 77.3702L59.1651 59.5669L73.9035 72.1844L67.1563 72.9348Z" fill="#D50185"/>
<path d="M40.0001 57.0421C40.7971 57.0421 41.4433 56.4846 41.4433 55.797V54.3357C51.2962 53.7251 59.1902 46.9148 59.898 38.4147H61.592C62.3891 38.4147 63.0353 37.8572 63.0353 37.1696C63.0353 36.482 62.3891 35.9245 61.592 35.9245H59.898C59.1902 27.4244 51.2962 20.6141 41.4433 20.0035V18.5422C41.4433 17.8546 40.7971 17.2971 40.0001 17.2971C39.203 17.2971 38.5568 17.8546 38.5568 18.5422V20.0035C28.7039 20.6141 20.8099 27.4245 20.1021 35.9245H18.4081C17.611 35.9245 16.9648 36.482 16.9648 37.1696C16.9648 37.8572 17.611 38.4147 18.4081 38.4147H20.1021C20.8099 46.9148 28.7039 53.7251 38.5568 54.3357V55.797C38.5568 56.4846 39.203 57.0421 40.0001 57.0421ZM57.0024 35.9245H53.7056C53.0313 30.361 47.8922 25.9274 41.4433 25.3457V22.5015C49.7034 23.1012 56.3074 28.7983 57.0024 35.9245ZM38.5568 22.5014V29.1863C38.5568 29.8739 39.203 30.4314 40.0001 30.4314C40.7971 30.4314 41.4433 29.8739 41.4433 29.1863V27.8553C46.2981 28.4125 50.1506 31.7363 50.7964 35.9245H49.2537C48.4566 35.9245 47.8104 36.482 47.8104 37.1696C47.8104 37.8572 48.4566 38.4147 49.2537 38.4147H50.798C50.3513 41.2743 48.386 43.8449 45.4469 45.3118C44.757 45.6561 44.5213 46.4178 44.9204 47.0131C45.1879 47.4121 45.6726 47.635 46.1711 47.635C46.4164 47.635 46.6648 47.5809 46.8925 47.4673C50.7216 45.5562 53.2426 42.163 53.7041 38.4149H57.0024C56.3074 45.5409 49.7034 51.2382 41.4433 51.8378V45.1529C41.4433 44.4653 40.7971 43.9078 40.0001 43.9078C39.203 43.9078 38.5568 44.4653 38.5568 45.1529V46.4839C33.702 45.9267 29.8495 42.6031 29.2037 38.4149H30.7464C31.5435 38.4149 32.1897 37.8574 32.1897 37.1698C32.1897 36.4821 31.5435 35.9247 30.7464 35.9247H29.2022C29.6488 33.065 31.6141 30.4945 34.5532 29.0276C35.2431 28.6832 35.4788 27.9216 35.0797 27.3262C34.6806 26.7309 33.7975 26.5277 33.1076 26.872C29.2786 28.7832 26.7575 32.1764 26.296 35.9247H22.9977C23.6927 28.7983 30.2967 23.1012 38.5568 22.5014ZM22.9977 38.4147H26.2945C26.9688 43.978 32.1081 48.4118 38.5568 48.9935V51.8377C30.2967 51.2379 23.6927 45.5407 22.9977 38.4147Z" fill="url(#paint1_linear)"/>
<defs>
<linearGradient id="paint0_linear" x1="-5.00001" y1="-17.6855" x2="-0.955343" y2="60.8281" gradientUnits="userSpaceOnUse">
<stop offset="0.176852" stop-color="#37A8F7"/>
<stop offset="0.527238" stop-color="#6028B7"/>
<stop offset="1" stop-color="#D50185"/>
</linearGradient>
<linearGradient id="paint1_linear" x1="17" y1="11.2152" x2="19.3971" y2="55.0619" gradientUnits="userSpaceOnUse">
<stop offset="0.00283978" stop-color="#37A8F7"/>
<stop offset="0.46487" stop-color="#6028B7"/>
<stop offset="1" stop-color="#D50185"/>
</linearGradient>
</defs>
</svg>
