<svg width="85" height="71" viewBox="0 0 85 71" fill="none" xmlns="http://www.w3.org/2000/svg">
<path d="M82.4658 34.256H82.4216V5.84861C82.4216 4.45123 81.2847 3.31416 79.8871 3.31416H59.2153V1.98086C59.2153 1.29321 58.6578 0.735718 57.9701 0.735718C57.2825 0.735718 56.725 1.29321 56.725 1.98086V3.31416H36.0529C34.6556 3.31416 33.5185 4.45106 33.5185 5.84861V13.5841C33.5185 14.2718 34.076 14.8293 34.7636 14.8293C35.4513 14.8293 36.0088 14.2718 36.0088 13.5841V5.84861C36.0088 5.82437 36.0285 5.80445 36.0529 5.80445H79.8871C79.9114 5.80445 79.9313 5.82421 79.9313 5.84861V34.256H56.6808C55.9932 34.256 55.4357 34.8135 55.4357 35.5011C55.4357 36.1888 55.9932 36.7463 56.6808 36.7463H82.4658C82.49 36.7463 82.5099 36.766 82.5099 36.7904V39.3689C82.5099 39.3931 82.4902 39.413 82.4658 39.413H52.3399C52.6202 38.1531 52.7691 36.8444 52.7691 35.5011C52.7691 30.9842 51.0968 26.8507 48.3394 23.6864L51.1378 20.888C51.644 21.1358 52.2126 21.2754 52.8131 21.2754C53.4136 21.2754 53.9822 21.1358 54.4884 20.888L57.757 24.1565C57.5091 24.6627 57.3696 25.2313 57.3696 25.8318C57.3696 27.9403 59.0849 29.6554 61.1932 29.6554C63.3015 29.6554 65.0168 27.9401 65.0168 25.8318C65.0168 25.2312 64.8772 24.6627 64.6295 24.1565L71.7657 17.0204C72.2719 17.2682 72.8405 17.4079 73.441 17.4079C75.5494 17.4079 77.2645 15.6926 77.2645 13.5843C77.2645 11.476 75.5492 9.76069 73.441 9.76069C71.3327 9.76069 69.6174 11.476 69.6174 13.5843C69.6174 14.1849 69.757 14.7534 70.0047 15.2596L62.8685 22.3957C62.3623 22.1479 61.7937 22.0083 61.1932 22.0083C60.5927 22.0083 60.0241 22.1479 59.5179 22.3957L56.2493 19.1272C56.4972 18.621 56.6367 18.0523 56.6367 17.4519C56.6367 15.3434 54.9214 13.6283 52.8131 13.6283C50.7048 13.6283 48.9895 15.3436 48.9895 17.4519C48.9895 18.0525 49.1291 18.621 49.3768 19.1272L46.5784 21.9256C43.4141 19.1682 39.2807 17.4959 34.7636 17.4959C24.8355 17.4959 16.7584 25.573 16.7584 35.5011C16.7584 40.018 18.4307 44.1516 21.1881 47.3159L17.8534 50.6506C16.4278 49.9576 14.6589 50.1985 13.4765 51.3809L1.11801 63.7392C-0.372672 65.23 -0.372672 67.6557 1.11801 69.1466C1.86344 69.892 2.84262 70.2647 3.8218 70.2647C4.80098 70.2647 5.78017 69.892 6.52559 69.1466L18.8839 56.7881C20.0663 55.6059 20.3072 53.837 19.6142 52.4113L22.9489 49.0767C26.1132 51.8341 30.2466 53.5064 34.7636 53.5064C37.0168 53.5064 39.1739 53.0892 41.1637 52.33L40.0286 55.7352C39.8111 56.3877 40.1637 57.0928 40.8162 57.3102C40.9468 57.3537 41.0795 57.3745 41.2102 57.3745C41.7315 57.3745 42.2172 57.0444 42.3912 56.5228L44.3124 50.759C47.6067 48.6899 50.1865 45.5846 51.5918 41.9032H56.725V56.129C56.725 56.8167 57.2825 57.3742 57.9701 57.3742C58.6578 57.3742 59.2153 56.8167 59.2153 56.129V41.9032H68.6759L73.549 56.5226C73.723 57.0444 74.2088 57.3743 74.7301 57.3743C74.8606 57.3743 74.9934 57.3536 75.1241 57.3101C75.7765 57.0926 76.129 56.3875 75.9117 55.7351L71.301 41.903H82.4658C83.8631 41.903 85.0002 40.7661 85.0002 39.3686V36.7901C85 35.3929 83.8631 34.256 82.4658 34.256ZM73.441 12.2506C74.1761 12.2506 74.7743 12.8488 74.7743 13.5839C74.7743 14.3191 74.1761 14.9172 73.441 14.9172C72.7058 14.9172 72.1077 14.3191 72.1077 13.5839C72.1077 12.8488 72.7058 12.2506 73.441 12.2506ZM62.5265 25.8318C62.5265 26.567 61.9284 27.1651 61.1932 27.1651C60.4581 27.1651 59.8599 26.567 59.8599 25.8318C59.8599 25.0967 60.4581 24.4985 61.1932 24.4985C61.9284 24.4985 62.5265 25.0967 62.5265 25.8318ZM52.8131 16.1184C53.5482 16.1184 54.1464 16.7166 54.1464 17.4517C54.1464 18.1868 53.5482 18.785 52.8131 18.785C52.0779 18.785 51.4798 18.1868 51.4798 17.4517C51.4798 16.7166 52.0779 16.1184 52.8131 16.1184ZM4.76479 67.3858C4.24482 67.9058 3.39895 67.9058 2.87915 67.3858C2.35934 66.866 2.35934 66.0199 2.87915 65.5001L12.3127 56.0666L14.1983 57.9522L4.76479 67.3858ZM17.1231 55.0273L15.9591 56.1913L14.0735 54.3058L15.2374 53.1418C15.7574 52.622 16.6031 52.6222 17.1231 53.1418C17.6429 53.6616 17.6429 54.5075 17.1231 55.0273ZM34.7636 51.0161C26.2087 51.0161 19.2486 44.0561 19.2486 35.5011C19.2486 26.9462 26.2087 19.9861 34.7636 19.9861C38.5939 19.9861 42.1037 21.382 44.8131 23.6909L36.4391 32.0649C35.9329 31.817 35.3643 31.6774 34.7638 31.6774C32.6554 31.6774 30.9402 33.3927 30.9402 35.501C30.9402 37.6092 32.6555 39.3246 34.7638 39.3246C36.8721 39.3246 38.5874 37.6096 38.5874 35.5011C38.5874 34.9005 38.4478 34.332 38.2001 33.8258L42.9148 29.111C44.3433 30.9293 45.1217 33.1656 45.1217 35.5013C45.1217 41.2127 40.4752 45.8594 34.7636 45.8594C29.0521 45.8594 24.4057 41.2125 24.4057 35.5011C24.4057 29.7897 29.0522 25.143 34.7638 25.143C35.7568 25.143 36.7386 25.2831 37.6816 25.5592C38.3412 25.7522 39.0331 25.3741 39.2266 24.7144C39.4198 24.0543 39.0416 23.3626 38.3817 23.1694C37.2113 22.8266 35.994 22.6527 34.764 22.6527C27.6794 22.6527 21.9156 28.4164 21.9156 35.5011C21.9156 42.5858 27.6793 48.3495 34.764 48.3495C41.8487 48.3495 47.6124 42.5858 47.6124 35.5011C47.6124 32.5028 46.5766 29.6373 44.6848 27.3411L46.5742 25.4517C48.8831 28.1609 50.279 31.6709 50.279 35.5011C50.2788 44.0561 43.3188 51.0161 34.7636 51.0161ZM36.0971 35.5011C36.0971 36.2363 35.4989 36.8344 34.7638 36.8344C34.0287 36.8344 33.4305 36.2363 33.4305 35.5011C33.4305 34.766 34.0287 34.1678 34.7638 34.1678C35.4989 34.1678 36.0971 34.766 36.0971 35.5011Z" fill="url(#paint0_linear)"/>
<defs>
<linearGradient id="paint0_linear" x1="4.59459" y1="-1.93847" x2="8.28706" y2="66.676" gradientUnits="userSpaceOnUse">
<stop offset="0.176852" stop-color="#37A8F7"/>
<stop offset="0.527238" stop-color="#6028B7"/>
<stop offset="1" stop-color="#D50185"/>
</linearGradient>
</defs>
</svg>
