<?xml version="1.0" encoding="utf-8"?>
<!-- Generator: Adobe Illustrator 24.1.1, SVG Export Plug-In . SVG Version: 6.00 Build 0)  -->
<svg version="1.1" id="Слой_1" xmlns="http://www.w3.org/2000/svg" xmlns:xlink="http://www.w3.org/1999/xlink" x="0px" y="0px"
	 viewBox="0 0 612 792" style="enable-background:new 0 0 612 792;" xml:space="preserve">
<style type="text/css">
	.st0{fill:url(#SVGID_1_);}
	.st1{fill:url(#SVGID_2_);}
	.st2{fill:url(#SVGID_3_);}
	.st3{fill:url(#SVGID_4_);}
	.st4{fill:url(#SVGID_5_);}
	.st5{fill:url(#SVGID_6_);}
</style>
<linearGradient id="SVGID_1_" gradientUnits="userSpaceOnUse" x1="142.6073" y1="560.119" x2="445.6073" y2="190.1189">
	<stop  offset="0" style="stop-color:#930784"/>
	<stop  offset="1" style="stop-color:#3D87ED"/>
</linearGradient>
<path class="st0" d="M462.8,270.31c-52.84-14.48-105.98-37.02-153.69-65.19c-2.53-1.5-5.68-1.5-8.21,0
	c-49.09,28.98-99.36,50.3-153.69,65.19c-3.51,0.96-5.94,4.15-5.94,7.79v82.54c0,84.99,39.21,141.25,72.1,173.48
	C248.78,568.81,290.03,588,305,588c14.97,0,56.22-19.19,91.64-53.89c32.89-32.23,72.1-88.49,72.1-173.48V278.1
	C468.74,274.46,466.31,271.27,462.8,270.31L462.8,270.31z M452.59,360.63c0,79.38-36.57,131.88-67.25,161.94
	c-34.82,34.12-72.06,49.27-80.33,49.27c-8.28,0-45.51-15.15-80.34-49.27c-30.68-30.06-67.25-82.56-67.25-161.94v-76.4
	c51.96-14.75,100.34-35.34,147.59-62.79c46.06,26.72,96.86,48.33,147.58,62.79V360.63z M452.59,360.63"/>
<linearGradient id="SVGID_2_" gradientUnits="userSpaceOnUse" x1="48.7516" y1="483.2587" x2="351.7516" y2="113.2587">
	<stop  offset="0" style="stop-color:#930784"/>
	<stop  offset="1" style="stop-color:#3D87ED"/>
</linearGradient>
<path class="st1" d="M233.4,283.33c-1.63-4.15-6.32-6.19-10.48-4.55c-14.43,5.68-29.24,10.92-44.02,15.55
	c-3.37,1.06-5.66,4.18-5.66,7.71v31.19c0,4.46,3.62,8.08,8.08,8.08c4.46,0,8.07-3.62,8.07-8.08v-25.29
	c13.26-4.29,26.51-9.04,39.45-14.14C233,292.17,235.04,287.48,233.4,283.33L233.4,283.33z M233.4,283.33"/>
<linearGradient id="SVGID_3_" gradientUnits="userSpaceOnUse" x1="67.2741" y1="498.4272" x2="370.2741" y2="128.4272">
	<stop  offset="0" style="stop-color:#930784"/>
	<stop  offset="1" style="stop-color:#3D87ED"/>
</linearGradient>
<path class="st2" d="M248.75,284.86c1.09,0,2.19-0.22,3.24-0.68l0.15-0.06c4.09-1.79,5.93-6.55,4.14-10.64
	c-1.79-4.08-6.58-5.93-10.66-4.14l-0.13,0.06c-4.08,1.79-5.93,6.54-4.15,10.63C242.66,283.06,245.63,284.86,248.75,284.86
	L248.75,284.86z M248.75,284.86"/>
<linearGradient id="SVGID_4_" gradientUnits="userSpaceOnUse" x1="249.8503" y1="647.9423" x2="552.8503" y2="277.9423">
	<stop  offset="0" style="stop-color:#930784"/>
	<stop  offset="1" style="stop-color:#3D87ED"/>
</linearGradient>
<path class="st3" d="M401.24,464.46c-3.73-2.44-8.74-1.39-11.18,2.34c-6.66,10.19-14.46,19.95-23.21,29
	c-7.2,7.44-14.99,14.38-23.17,20.61c-3.55,2.7-4.23,7.77-1.52,11.32c1.59,2.09,4,3.18,6.43,3.18c1.71,0,3.43-0.54,4.89-1.65
	c8.82-6.73,17.23-14.21,24.99-22.24c9.46-9.78,17.91-20.34,25.13-31.39C406.03,471.91,404.98,466.9,401.24,464.46L401.24,464.46z
	 M401.24,464.46"/>
<linearGradient id="SVGID_5_" gradientUnits="userSpaceOnUse" x1="242.303" y1="641.7617" x2="545.303" y2="271.7617">
	<stop  offset="0" style="stop-color:#930784"/>
	<stop  offset="1" style="stop-color:#3D87ED"/>
</linearGradient>
<path class="st4" d="M324.92,529.08l-0.47,0.27c-3.86,2.23-5.18,7.18-2.94,11.04c1.5,2.59,4.21,4.04,7,4.04
	c1.38,0,2.76-0.35,4.04-1.09l0.54-0.32c3.85-2.25,5.14-7.2,2.89-11.05C333.72,528.12,328.77,526.83,324.92,529.08L324.92,529.08z
	 M324.92,529.08"/>
<linearGradient id="SVGID_6_" gradientUnits="userSpaceOnUse" x1="147.6744" y1="564.2685" x2="450.6744" y2="194.2685">
	<stop  offset="0" style="stop-color:#930784"/>
	<stop  offset="1" style="stop-color:#3D87ED"/>
</linearGradient>
<path class="st5" d="M249.94,379.52c-4.96-4.96-11.55-7.69-18.57-7.69c-7.02,0-13.61,2.73-18.57,7.69
	c-10.24,10.24-10.24,26.91,0,37.15l47.69,47.7c4.96,4.96,11.56,7.69,18.57,7.69c7.02,0,13.61-2.73,18.58-7.69l99.57-99.57
	c10.24-10.25,10.24-26.91,0-37.14c-4.96-4.96-11.55-7.69-18.57-7.69c-7.02,0-13.61,2.73-18.58,7.69l-81,81L249.94,379.52z
	 M371.48,339.06c1.91-1.91,4.45-2.96,7.15-2.96c2.7,0,5.24,1.05,7.15,2.96c3.94,3.94,3.94,10.36,0,14.3l-99.57,99.57
	c-1.91,1.91-4.45,2.96-7.15,2.96c-2.7,0-5.24-1.05-7.15-2.96l-47.69-47.7c-3.94-3.94-3.94-10.36,0-14.3
	c1.91-1.91,4.45-2.96,7.15-2.96c2.7,0,5.24,1.05,7.15,2.96l34.83,34.83c1.51,1.51,3.57,2.36,5.71,2.36c2.14,0,4.2-0.85,5.71-2.36
	L371.48,339.06z M371.48,339.06"/>
</svg>
