<?xml version="1.0" encoding="utf-8"?>
<!-- Generator: Adobe Illustrator 24.1.1, SVG Export Plug-In . SVG Version: 6.00 Build 0)  -->
<svg version="1.1" id="Слой_1" xmlns="http://www.w3.org/2000/svg" xmlns:xlink="http://www.w3.org/1999/xlink" x="0px" y="0px"
	 viewBox="0 0 612 792" style="enable-background:new 0 0 612 792;" xml:space="preserve">
<style type="text/css">
	.st0{fill:#474D59;}
	.st1{fill:#474D59;}
	.st2{fill:#474D59;}
	.st3{fill:#474D59;}
	.st4{fill:#474D59;}
	.st5{fill:#474D59;}
</style>
<g>
	<linearGradient id="SVGID_1_" gradientUnits="userSpaceOnUse" x1="120.3794" y1="594.4966" x2="454.831" y2="244.9482">
		<stop  offset="0" style="stop-color:#930784"/>
		<stop  offset="1" style="stop-color:#3D87ED"/>
	</linearGradient>
	<path class="st0" d="M490.5,360.56h-48c-4.14,0-7.5,3.36-7.5,7.5v37.88c0,4.14,3.36,7.5,7.5,7.5c4.14,0,7.5-3.36,7.5-7.5v-30.38h33
		V573h-33V462.19c0-4.14-3.36-7.5-7.5-7.5c-4.14,0-7.5,3.36-7.5,7.5V573h-15V417.75c0-4.14-3.36-7.5-7.5-7.5h-48
		c-4.14,0-7.5,3.36-7.5,7.5V573h-15V470.25c0-4.14-3.36-7.5-7.5-7.5h-48c-4.14,0-7.5,3.36-7.5,7.5V573h-15v-59.72
		c0-4.14-3.36-7.5-7.5-7.5h-48c-4.14,0-7.5,3.36-7.5,7.5V573h-64.5c-4.14,0-7.5-3.36-7.5-7.5v-339c0-4.14,3.36-7.5,7.5-7.5h193.48
		v49.5c0,12.41,10.09,22.5,22.5,22.5h49.5v92.25c0,4.14,3.36,7.5,7.5,7.5c4.15,0,7.5-3.36,7.5-7.5V283.5c0-1.99-0.79-3.9-2.2-5.3
		l-72-72c-1.41-1.41-3.32-2.2-5.3-2.2H136.5c-12.41,0-22.5,10.09-22.5,22.5v339c0,12.41,10.09,22.5,22.5,22.5h354
		c4.14,0,7.5-3.36,7.5-7.5V368.06C498,363.92,494.64,360.56,490.5,360.56L490.5,360.56z M344.98,229.61l46.4,46.4h-38.9
		c-4.14,0-7.5-3.37-7.5-7.5V229.61z M249,573h-33v-52.22h33V573z M327,573h-33v-95.25h33V573z M405,573h-33V425.25h33V573z M405,573
		"/>
	<linearGradient id="SVGID_2_" gradientUnits="userSpaceOnUse" x1="207.7095" y1="678.0549" x2="542.1611" y2="328.5065">
		<stop  offset="0" style="stop-color:#930784"/>
		<stop  offset="1" style="stop-color:#3D87ED"/>
	</linearGradient>
	<path class="st1" d="M447.8,427.36c-1.39-1.4-3.33-2.19-5.3-2.19c-1.97,0-3.91,0.8-5.3,2.19c-1.4,1.4-2.2,3.33-2.2,5.3
		s0.8,3.91,2.2,5.3c1.39,1.39,3.33,2.2,5.3,2.2c1.97,0,3.91-0.8,5.3-2.2c1.4-1.39,2.2-3.33,2.2-5.3S449.2,428.76,447.8,427.36
		L447.8,427.36z M447.8,427.36"/>
	<linearGradient id="SVGID_3_" gradientUnits="userSpaceOnUse" x1="44.2352" y1="521.641" x2="378.6868" y2="172.0926">
		<stop  offset="0" style="stop-color:#930784"/>
		<stop  offset="1" style="stop-color:#3D87ED"/>
	</linearGradient>
	<path class="st2" d="M223.18,245.05c-4.15,0-7.5,3.36-7.5,7.5v13.49c-34.52,3.75-61.48,33.07-61.48,68.57
		c0,38.04,30.95,68.99,68.98,68.99c35.5,0,64.83-26.96,68.57-61.49h13.49c4.14,0,7.5-3.36,7.5-7.5
		C312.75,285.23,272.57,245.05,223.18,245.05L223.18,245.05z M223.18,388.59c-29.77,0-53.98-24.21-53.98-53.98
		c0-27.22,20.25-49.8,46.48-53.46v53.46c0,4.14,3.35,7.5,7.5,7.5h53.46C272.98,368.34,250.4,388.59,223.18,388.59L223.18,388.59z
		 M230.68,327.11v-66.69c35.14,3.53,63.16,31.55,66.69,66.69H230.68z M230.68,327.11"/>
	<linearGradient id="SVGID_4_" gradientUnits="userSpaceOnUse" x1="98.4251" y1="573.4905" x2="432.8767" y2="223.9421">
		<stop  offset="0" style="stop-color:#930784"/>
		<stop  offset="1" style="stop-color:#3D87ED"/>
	</linearGradient>
	<path class="st3" d="M305.25,424.69H162c-4.14,0-7.5,3.36-7.5,7.5c0,4.14,3.36,7.5,7.5,7.5h143.25c4.14,0,7.5-3.36,7.5-7.5
		C312.75,428.05,309.39,424.69,305.25,424.69L305.25,424.69z M305.25,424.69"/>
	<linearGradient id="SVGID_5_" gradientUnits="userSpaceOnUse" x1="91.638" y1="566.9965" x2="426.0896" y2="217.448">
		<stop  offset="0" style="stop-color:#930784"/>
		<stop  offset="1" style="stop-color:#3D87ED"/>
	</linearGradient>
	<path class="st4" d="M210,460.88h-48c-4.14,0-7.5,3.36-7.5,7.5s3.36,7.5,7.5,7.5h48c4.14,0,7.5-3.36,7.5-7.5
		S214.14,460.88,210,460.88L210,460.88z M210,460.88"/>
	<linearGradient id="SVGID_6_" gradientUnits="userSpaceOnUse" x1="123.7761" y1="597.7465" x2="458.2277" y2="248.1982">
		<stop  offset="0" style="stop-color:#930784"/>
		<stop  offset="1" style="stop-color:#3D87ED"/>
	</linearGradient>
	<path class="st5" d="M252.86,463.07c-1.39-1.4-3.33-2.2-5.3-2.2c-1.98,0-3.91,0.8-5.3,2.2c-1.4,1.39-2.2,3.33-2.2,5.3
		s0.8,3.91,2.2,5.3c1.39,1.39,3.32,2.2,5.3,2.2c1.97,0,3.91-0.8,5.3-2.2c1.39-1.39,2.2-3.33,2.2-5.3S254.26,464.47,252.86,463.07
		L252.86,463.07z M252.86,463.07"/>
</g>
</svg>
