<svg width="80" height="80" viewBox="0 0 80 80" fill="none" xmlns="http://www.w3.org/2000/svg">
<path d="M75.0706 5.00964H4.92938C2.21125 5.00964 0 7.22105 0 9.93917V57.535C0 60.2531 2.21125 62.4645 4.92938 62.4645H31.313V67.6359H23.8175C22.4253 67.6359 21.2928 68.7686 21.2928 70.1606V72.465C21.2928 73.8571 22.4255 74.9898 23.8175 74.9898H56.1823C57.5745 74.9898 58.707 73.8571 58.707 72.465V70.1606C58.707 68.7684 57.5744 67.6359 56.1823 67.6359H48.687V62.4645H75.0705C77.7886 62.4645 79.9998 60.2531 79.9998 57.535V9.93917C80 7.22105 77.7887 5.00964 75.0706 5.00964ZM56.3634 70.1604V72.4648C56.3634 72.5646 56.2822 72.6459 56.1825 72.6459H23.8177C23.7178 72.6459 23.6367 72.5646 23.6367 72.4648V70.1604C23.6367 70.0606 23.718 69.9795 23.8177 69.9795H56.1825C56.2822 69.9795 56.3634 70.0607 56.3634 70.1604ZM46.3434 67.6357H33.6569V62.4643H46.3434V67.6357ZM77.6562 57.535C77.6562 58.9607 76.4964 60.1207 75.0706 60.1207H4.92938C3.50359 60.1207 2.34375 58.9607 2.34375 57.535V9.93917C2.34375 8.51339 3.50359 7.35355 4.92938 7.35355H75.0705C76.4962 7.35355 77.6561 8.51339 77.6561 9.93917V57.535H77.6562Z" fill="url(#paint0_linear)"/>
<path d="M73.8179 10.0195H13.697C13.0498 10.0195 12.5251 10.5442 12.5251 11.1913C12.5251 11.8385 13.0498 12.3632 13.697 12.3632H72.6459V55.1102H7.35352V12.3632H8.6868C9.33398 12.3632 9.85867 11.8385 9.85867 11.1913C9.85867 10.5442 9.33398 10.0195 8.6868 10.0195H6.18164C5.53445 10.0195 5.00977 10.5442 5.00977 11.1913V56.2821C5.00977 56.9293 5.53445 57.454 6.18164 57.454H73.8177C74.4649 57.454 74.9896 56.9293 74.9896 56.2821V11.1913C74.9898 10.5442 74.4651 10.0195 73.8179 10.0195Z" fill="url(#paint1_linear)"/>
<path d="M23.7176 40.0802H18.7074C17.3705 40.0802 16.283 41.1677 16.283 42.5046V47.5954H13.6973C13.0501 47.5954 12.5254 48.1201 12.5254 48.7673C12.5254 49.4144 13.0501 49.9391 13.6973 49.9391H66.3032C66.9504 49.9391 67.4751 49.4144 67.4751 48.7673C67.4751 48.1201 66.9504 47.5954 66.3032 47.5954H63.7176V45.0098C63.7176 44.3626 63.1929 43.8379 62.5457 43.8379C61.8985 43.8379 61.3738 44.3626 61.3738 45.0098V47.5954H56.2024V19.9593C56.2024 19.9148 56.2385 19.8787 56.283 19.8787H61.2932C61.3377 19.8787 61.3738 19.9148 61.3738 19.9593V39.9996C61.3738 40.6468 61.8985 41.1715 62.5457 41.1715C63.1929 41.1715 63.7176 40.6468 63.7176 39.9996V19.9593C63.7176 18.6224 62.6301 17.5349 61.2932 17.5349H56.283C54.9462 17.5349 53.8587 18.6224 53.8587 19.9593V47.5954H51.1924V34.9896C51.1924 33.6527 50.1049 32.5652 48.768 32.5652H43.758C42.4212 32.5652 41.3337 33.6527 41.3337 34.9896V47.5954H38.6674V27.4744C38.6674 26.1376 37.5799 25.0501 36.243 25.0501H31.233C29.8962 25.0501 28.8087 26.1376 28.8087 27.4744V47.5954H26.1424V42.5046C26.142 41.1679 25.0543 40.0802 23.7176 40.0802ZM18.6266 42.5046C18.6266 42.4601 18.6627 42.424 18.7073 42.424H23.7174C23.762 42.424 23.798 42.4601 23.798 42.5046V47.5954H18.6266V42.5046ZM43.6771 34.9896C43.6771 34.9451 43.7132 34.909 43.7577 34.909H48.7677C48.8123 34.909 48.8484 34.9451 48.8484 34.9896V47.5954H43.677V34.9896H43.6771ZM31.152 27.4744C31.152 27.4299 31.188 27.3938 31.2326 27.3938H36.2426C36.2871 27.3938 36.3232 27.4299 36.3232 27.4744V47.5954H31.1518V27.4744H31.152Z" fill="url(#paint2_linear)"/>
<defs>
<linearGradient id="paint0_linear" x1="-10.8235" y1="-17.4113" x2="-2.43823" y2="73.5128" gradientUnits="userSpaceOnUse">
<stop offset="0.176852" stop-color="#37A8F7"/>
<stop offset="0.527238" stop-color="#6028B7"/>
<stop offset="1" stop-color="#D50185"/>
</linearGradient>
<linearGradient id="paint1_linear" x1="1.41232" y1="2.35311" x2="5.94693" y2="56.6657" gradientUnits="userSpaceOnUse">
<stop offset="0.176852" stop-color="#37A8F7"/>
<stop offset="0.527238" stop-color="#6028B7"/>
<stop offset="1" stop-color="#D50185"/>
</linearGradient>
<linearGradient id="paint2_linear" x1="15.4956" y1="16.2886" x2="16.738" y2="48.311" gradientUnits="userSpaceOnUse">
<stop offset="0.176852" stop-color="#37A8F7"/>
<stop offset="0.527238" stop-color="#6028B7"/>
<stop offset="1" stop-color="#D50185"/>
</linearGradient>
</defs>
</svg>
