<svg width="85" height="85" viewBox="0 0 85 85" fill="none" xmlns="http://www.w3.org/2000/svg">
<g clip-path="url(#clip0)">
<path d="M56.4067 27.768C56.0554 26.6867 55.0937 25.9881 53.9568 25.9881H47.1264L45.0157 19.4919C44.6644 18.4107 43.7028 17.7119 42.566 17.7119C41.4289 17.7119 40.4674 18.4105 40.1161 19.4919L38.0054 25.9881H31.175C30.0381 25.9881 29.0764 26.6867 28.7251 27.768C28.3738 28.8492 28.741 29.9796 29.6609 30.6479L35.1869 34.6628L33.076 41.159C32.7247 42.2402 33.092 43.3706 34.0117 44.0388C34.4716 44.373 34.9987 44.5402 35.5258 44.5402C36.0528 44.5402 36.58 44.3732 37.0398 44.039L42.5658 40.0241L48.0916 44.0388C49.0115 44.7074 50.2004 44.7072 51.1199 44.0388C52.0398 43.3706 52.4069 42.2402 52.0556 41.159L49.9449 34.6628L55.4709 30.6479C56.3907 29.9798 56.758 28.8492 56.4067 27.768ZM54.0073 28.6334L47.7495 33.1801C47.313 33.4972 47.1304 34.0591 47.2971 34.5721L49.6874 41.9286C49.699 41.9641 49.7066 41.9877 49.6562 42.0244C49.6057 42.0611 49.5858 42.0463 49.5554 42.0244L43.2976 37.4779C42.8611 37.1608 42.2703 37.1608 41.834 37.4779L35.5761 42.0246C35.5458 42.0465 35.5258 42.0613 35.4754 42.0246C35.4251 41.988 35.4328 41.9645 35.4442 41.9288L37.8345 34.5723C38.0012 34.0593 37.8186 33.4972 37.3821 33.1803L31.1243 28.6336C31.094 28.6115 31.0739 28.5969 31.0931 28.5378C31.1124 28.4787 31.1371 28.4787 31.1747 28.4787H38.9096C39.449 28.4787 39.9272 28.1314 40.0938 27.6182L42.4841 20.2616C42.4957 20.2261 42.5034 20.2025 42.5656 20.2025C42.6279 20.2025 42.6355 20.2261 42.6472 20.2616L45.0374 27.6182C45.2041 28.1312 45.6822 28.4787 46.2216 28.4787H53.9566C53.9941 28.4787 54.0189 28.4787 54.0381 28.5378C54.0576 28.5967 54.0376 28.6113 54.0073 28.6334Z" fill="url(#paint0_linear)"/>
<path d="M42.4989 3.99243C27.1362 3.99243 14.6377 16.4909 14.6377 31.8537C14.6377 42.4345 20.5668 51.656 29.2766 56.372V79.7626C29.2766 80.1841 29.4898 80.5769 29.8432 80.8067C30.1967 81.0365 30.6423 81.0717 31.0274 80.9005L42.4989 75.802L53.9704 80.9003C54.1321 80.9722 54.3043 81.0076 54.476 81.0076C54.7134 81.0076 54.9494 80.9397 55.1545 80.8065C55.5079 80.5769 55.7211 80.184 55.7211 79.7625V56.372C64.4309 51.656 70.36 42.4345 70.36 31.8537C70.3602 16.4909 57.8617 3.99243 42.4989 3.99243ZM31.7669 57.5638C34.7088 58.7965 37.9054 59.5376 41.2538 59.6857V73.6303L31.7669 77.8468V57.5638ZM53.231 77.8466L43.744 73.6302V59.6855C47.0924 59.5374 50.289 58.7963 53.231 57.5637V77.8466ZM42.4989 57.2245C28.5093 57.2245 17.1279 45.8431 17.1279 31.8537C17.1279 17.8642 28.5093 6.48267 42.4989 6.48267C56.4886 6.48267 67.8699 17.864 67.8699 31.8537C67.8699 45.8433 56.4886 57.2245 42.4989 57.2245Z" fill="url(#paint1_linear)"/>
<path d="M10.4751 31.8534C10.4751 31.1658 9.91761 30.6083 9.22997 30.6083H1.24512C0.55748 30.6083 0 31.1658 0 31.8534C0 32.541 0.55748 33.0985 1.24512 33.0985H9.22997C9.91761 33.0985 10.4751 32.541 10.4751 31.8534Z" fill="#515AD0"/>
<path d="M83.7554 30.6083H75.7705C75.0829 30.6083 74.5254 31.1658 74.5254 31.8534C74.5254 32.541 75.0829 33.0985 75.7705 33.0985H83.7554C84.443 33.0985 85.0005 32.541 85.0005 31.8534C85.0005 31.1658 84.443 30.6083 83.7554 30.6083Z" fill="#5745C6"/>
<path d="M11.0383 20.9618L5.94641 19.4097C5.28866 19.209 4.59289 19.5801 4.39234 20.2378C4.19179 20.8956 4.56251 21.5913 5.22043 21.7919L10.3123 23.344C10.4333 23.3808 10.5555 23.3984 10.6757 23.3984C11.2091 23.3984 11.7027 23.0528 11.8664 22.516C12.0667 21.8581 11.696 21.1623 11.0383 20.9618Z" fill="#4D65D6"/>
<path d="M79.7804 41.9152L74.6886 40.3632C74.0303 40.1626 73.3349 40.5333 73.1345 41.1911C72.934 41.8488 73.3047 42.5446 73.9624 42.7452L79.0543 44.2972C79.1753 44.3341 79.2975 44.3517 79.4177 44.3517C79.9511 44.3517 80.4447 44.006 80.6084 43.4693C80.8089 42.8116 80.4382 42.1158 79.7804 41.9152Z" fill="#6D24B2"/>
<path d="M74.3241 23.3982C74.4443 23.3982 74.5665 23.3808 74.6875 23.3437L79.7794 21.7917C80.4372 21.5911 80.8079 20.8953 80.6075 20.2376C80.4069 19.5797 79.7115 19.2088 79.0534 19.4095L73.9616 20.9616C73.3038 21.1621 72.9331 21.8579 73.1335 22.5156C73.2972 23.0527 73.7906 23.3982 74.3241 23.3982Z" fill="#467CE1"/>
<path d="M10.3121 40.3629L5.22026 41.915C4.56251 42.1155 4.19179 42.8113 4.39234 43.4691C4.55603 44.0058 5.04943 44.3514 5.583 44.3514C5.7032 44.3514 5.82539 44.3338 5.94641 44.297L11.0383 42.7449C11.696 42.5444 12.0667 41.8486 11.8662 41.1908C11.6658 40.5331 10.9704 40.1627 10.3121 40.3629Z" fill="#6D24B2"/>
<path d="M28.3243 17.6781C35.452 10.5506 46.8253 9.84137 54.7801 16.0284C55.3229 16.4508 56.105 16.353 56.5272 15.8101C56.9494 15.2673 56.8516 14.4852 56.3089 14.063C47.3653 7.10643 34.5775 7.90347 26.5636 15.9174C18.5498 23.9311 17.7526 36.719 24.7092 45.6627C24.9547 45.9783 25.3218 46.1435 25.6928 46.1435C25.9599 46.1435 26.2292 46.0579 26.4563 45.8811C26.9992 45.4589 27.0968 44.6766 26.6746 44.1339C20.4875 36.1793 21.1968 24.8059 28.3243 17.6781Z" fill="url(#paint2_linear)"/>
<path d="M58.5442 17.8267C58.0013 18.2489 57.9037 19.0311 58.3259 19.5738C64.5131 27.5285 63.8039 38.9019 56.6762 46.0294C49.5485 53.1572 38.1751 53.8664 30.2206 47.6791C29.6776 47.2568 28.8955 47.3546 28.4733 47.8974C28.0511 48.4403 28.1489 49.2224 28.6916 49.6446C32.7683 52.8155 37.6428 54.3754 42.5008 54.3754C48.3005 54.3754 54.076 52.1513 58.4371 47.7902C66.4508 39.7764 67.2482 26.9886 60.2915 18.0448C59.8693 17.5021 59.0869 17.4043 58.5442 17.8267Z" fill="url(#paint3_linear)"/>
</g>
<defs>
<linearGradient id="paint0_linear" x1="30.1042" y1="16.6801" x2="31.7747" y2="43.1266" gradientUnits="userSpaceOnUse">
<stop offset="0.176852" stop-color="#37A8F7"/>
<stop offset="0.527238" stop-color="#6028B7"/>
<stop offset="1" stop-color="#D50185"/>
</linearGradient>
<linearGradient id="paint1_linear" x1="17.6497" y1="1.0303" x2="24.5237" y2="76.6277" gradientUnits="userSpaceOnUse">
<stop offset="0.176852" stop-color="#37A8F7"/>
<stop offset="0.527238" stop-color="#6028B7"/>
<stop offset="1" stop-color="#D50185"/>
</linearGradient>
<linearGradient id="paint2_linear" x1="21.9683" y1="7.91646" x2="24.3548" y2="44.1917" gradientUnits="userSpaceOnUse">
<stop offset="0.176852" stop-color="#37A8F7"/>
<stop offset="0.527238" stop-color="#6028B7"/>
<stop offset="1" stop-color="#D50185"/>
</linearGradient>
<linearGradient id="paint3_linear" x1="30.2007" y1="16.1484" x2="32.5872" y2="52.4235" gradientUnits="userSpaceOnUse">
<stop offset="0.176852" stop-color="#37A8F7"/>
<stop offset="0.527238" stop-color="#6028B7"/>
<stop offset="1" stop-color="#D50185"/>
</linearGradient>
<clipPath id="clip0">
<rect width="85" height="85" fill="white"/>
</clipPath>
</defs>
</svg>

