<?xml version="1.0" encoding="utf-8"?>
<!-- Generator: Adobe Illustrator 24.1.1, SVG Export Plug-In . SVG Version: 6.00 Build 0)  -->
<svg version="1.1" id="Слой_1" xmlns="http://www.w3.org/2000/svg" xmlns:xlink="http://www.w3.org/1999/xlink" x="0px" y="0px"
	 viewBox="0 0 612 792" style="enable-background:new 0 0 612 792;" xml:space="preserve">
<style type="text/css">
	.st0{fill:url(#SVGID_1_);}
	.st1{fill:url(#SVGID_2_);}
	.st2{fill:url(#SVGID_3_);}
	.st3{fill:url(#SVGID_4_);}
</style>
<linearGradient id="SVGID_1_" gradientUnits="userSpaceOnUse" x1="160.9109" y1="594.2784" x2="496.9109" y2="292.2784">
	<stop  offset="0" style="stop-color:#930784"/>
	<stop  offset="1" style="stop-color:#3D87ED"/>
</linearGradient>
<path class="st0" d="M466,332h-4.45l-54.95-95.99c-4.26-7.42-11.13-12.73-19.36-14.93c-3.06-0.82-6.17-1.17-9.25-1.07
	c-5.16,0.17-10.24,1.62-14.83,4.29l-233.3,135.82C119.66,366.07,113.95,376.9,114,388c0.02,5.36,1.4,10.79,4.24,15.76L162,480.19
	V540c0,17.65,14.35,32,32,32h272c17.65,0,32-14.35,32-32V364C498,346.35,483.65,332,466,332L466,332z M162,447.98l-6.11-10.68
	l6.11-3.55V447.98z M162,415.23l-14.06,8.19l-7.9-13.8L162,396.84V415.23z M162,364v14.32l-29.9,17.4
	c-4.32-7.63-1.73-17.38,5.81-21.77l24.52-14.28C162.24,361.11,162,362.52,162,364L162,364z M443.11,332H336.75l79.77-46.45
	L443.11,332z M408.57,271.67L304.95,332h-31.59l127.32-74.13L408.57,271.67z M371.22,238.14c3.63-2.11,7.84-2.7,11.88-1.6
	c4.09,1.09,7.49,3.73,9.61,7.43l0.02,0.03L241.56,332h-31.58L371.22,238.14z M482,540c0,8.82-7.18,16-16,16H194
	c-8.82,0-16-7.18-16-16V364c0-8.82,7.18-16,16-16h272c8.82,0,16,7.18,16,16V540z M482,540L482,540z"/>
<linearGradient id="SVGID_2_" gradientUnits="userSpaceOnUse" x1="217.7962" y1="657.5679" x2="553.7962" y2="355.5679">
	<stop  offset="0" style="stop-color:#930784"/>
	<stop  offset="1" style="stop-color:#3D87ED"/>
</linearGradient>
<path class="st1" d="M417,460c-5.25,0-10.35,1.22-15,3.56c-4.65-2.34-9.75-3.56-15-3.56c-18.2,0-33,14.35-33,32
	c0,17.65,14.8,32,33,32c5.25,0,10.35-1.22,15-3.56c4.65,2.34,9.75,3.56,15,3.56c18.2,0,33-14.35,33-32C450,474.35,435.2,460,417,460
	L417,460z M417,508c-3.7,0-7.25-1.17-10.3-3.38c-1.4-1.02-3.05-1.52-4.7-1.52s-3.3,0.51-4.7,1.52c-3.05,2.21-6.61,3.38-10.3,3.38
	c-9.38,0-17-7.18-17-16s7.63-16,17-16c3.7,0,7.25,1.17,10.3,3.38c2.8,2.03,6.59,2.03,9.39,0c3.05-2.21,6.61-3.38,10.3-3.38
	c9.38,0,17,7.18,17,16S426.38,508,417,508L417,508z M417,508L417,508z"/>
<linearGradient id="SVGID_3_" gradientUnits="userSpaceOnUse" x1="141.5165" y1="572.7004" x2="477.5165" y2="270.7004">
	<stop  offset="0" style="stop-color:#930784"/>
	<stop  offset="1" style="stop-color:#3D87ED"/>
</linearGradient>
<path class="st2" d="M218,476h80c4.42,0,8-3.58,8-8s-3.58-8-8-8h-80c-4.42,0-8,3.58-8,8S213.58,476,218,476L218,476z M218,476
	L218,476z"/>
<linearGradient id="SVGID_4_" gradientUnits="userSpaceOnUse" x1="172.5303" y1="607.2059" x2="508.5303" y2="305.2059">
	<stop  offset="0" style="stop-color:#930784"/>
	<stop  offset="1" style="stop-color:#3D87ED"/>
</linearGradient>
<path class="st3" d="M330,508H218c-4.42,0-8,3.58-8,8s3.58,8,8,8h112c4.42,0,8-3.58,8-8S334.42,508,330,508L330,508z M330,508
	L330,508z"/>
</svg>
