<svg width="69" height="69" viewBox="0 0 69 69" fill="none" xmlns="http://www.w3.org/2000/svg">
<path d="M48.2997 25.3359V26.0859H49.0497H53.9062C57.9506 26.0859 61.2422 29.3775 61.2422 33.4219V60.9141C61.2422 64.9584 57.9506 68.25 53.9062 68.25H15.0938C11.0494 68.25 7.75781 64.9584 7.75781 60.9141V33.4219C7.75781 29.3775 11.0494 26.0859 15.0938 26.0859H19.9403H20.6903V25.3359V14.2542C20.6903 6.82325 26.869 0.75 34.495 0.75C42.1211 0.75 48.2997 6.82325 48.2997 14.2542V25.3359ZM43.6591 26.0859H44.4091V25.3359V14.2542C44.4091 8.92916 39.9385 4.64062 34.495 4.64062C29.0515 4.64062 24.581 8.92916 24.581 14.2542V25.3359V26.0859H25.331H43.6591ZM53.9062 64.3594C55.8067 64.3594 57.3516 62.8145 57.3516 60.9141V33.4219C57.3516 31.5215 55.8067 29.9766 53.9062 29.9766H15.0938C13.1933 29.9766 11.6484 31.5215 11.6484 33.4219V60.9141C11.6484 62.8145 13.1933 64.3594 15.0938 64.3594H53.9062Z" fill="url(#paint0_linear)" stroke="#091323" stroke-width="1.5"/>
<path d="M32.2997 47.7202V47.4479L32.0709 47.3002C30.8322 46.5004 30.0137 45.1106 30.0137 43.5293C30.0137 41.0515 32.0222 39.043 34.5 39.043C36.9778 39.043 38.9863 41.0515 38.9863 43.5293C38.9863 45.1145 38.1638 46.507 36.9201 47.3059L36.6903 47.4535V47.7266V53.6367C36.6903 54.8491 35.7074 55.832 34.495 55.832C33.2826 55.832 32.2997 54.8491 32.2997 53.6367V47.7202Z" fill="url(#paint1_linear)" stroke="#091323"/>
<defs>
<linearGradient id="paint0_linear" x1="9.97993" y1="-2.65385" x2="15.5797" y2="65.1734" gradientUnits="userSpaceOnUse">
<stop offset="0.176852" stop-color="#37A8F7"/>
<stop offset="0.527238" stop-color="#6028B7"/>
<stop offset="1" stop-color="#D50185"/>
</linearGradient>
<linearGradient id="paint1_linear" x1="34.5" y1="38.543" x2="34.5" y2="56.332" gradientUnits="userSpaceOnUse">
<stop stop-color="#D70084"/>
<stop offset="0.0001" stop-color="#6028B7"/>
<stop offset="1" stop-color="#D50185"/>
</linearGradient>
</defs>
</svg>

