<svg width="76" height="85" viewBox="0 0 76 85" fill="none" xmlns="http://www.w3.org/2000/svg">
<path d="M38.6091 46.3892C38.4518 46.3552 38.2905 46.349 38.1312 46.3729C36.5347 46.187 35.3304 44.8363 35.3277 43.2297C35.3277 42.4597 34.7034 41.8354 33.9335 41.8354C33.1635 41.8354 32.5392 42.4597 32.5392 43.2297C32.5433 45.9126 34.3378 48.2627 36.9248 48.9728V50.367C36.9248 51.137 37.5491 51.7613 38.3191 51.7613C39.089 51.7613 39.7133 51.137 39.7133 50.367V49.0572C42.6992 48.4322 44.7286 45.6512 44.4148 42.617C44.1003 39.5827 41.5439 37.2769 38.4933 37.2762C36.7451 37.2762 35.3277 35.8588 35.3277 34.1106C35.3277 32.3623 36.7451 30.9449 38.4933 30.9449C40.2416 30.9449 41.659 32.3623 41.659 34.1106C41.659 34.8805 42.2833 35.5048 43.0532 35.5048C43.8232 35.5048 44.4475 34.8805 44.4475 34.1106C44.4434 31.2935 42.4698 28.8638 39.7133 28.2824V27.0134C39.7133 26.2434 39.089 25.6191 38.3191 25.6191C37.5491 25.6191 36.9248 26.2434 36.9248 27.0134V28.3675C34.0478 29.1531 32.1961 31.9463 32.5923 34.9023C32.9885 37.8583 35.5108 40.0647 38.4933 40.064C40.2184 40.064 41.6256 41.4453 41.6569 43.1698C41.6889 44.8942 40.3328 46.3266 38.6091 46.3892Z" fill="url(#paint0_linear)"/>
<path d="M18.2754 38.7775C18.2754 49.9437 27.3271 58.9954 38.4933 58.9954C49.6595 58.9954 58.7112 49.9437 58.7112 38.7775C58.7112 27.6113 49.6595 18.5596 38.4933 18.5596C27.3325 18.5718 18.2883 27.6167 18.2754 38.7775ZM38.4933 21.3481C48.1196 21.3481 55.9227 29.1512 55.9227 38.7775C55.9227 48.4038 48.1196 56.2069 38.4933 56.2069C28.867 56.2069 21.0639 48.4038 21.0639 38.7775C21.0748 29.156 28.8718 21.359 38.4933 21.3481Z" fill="url(#paint1_linear)"/>
<path d="M65.5852 62.433L54.6634 67.5933C53.1554 64.7885 50.2628 63.0035 47.0794 62.9136L36.997 62.6365C35.4006 62.5909 33.8341 62.1865 32.4147 61.4533L31.3887 60.9216C26.1358 58.1835 19.8746 58.1903 14.6271 60.9393L14.6911 58.6151C14.7122 57.8452 14.1057 57.2039 13.3357 57.1828L2.27976 56.8785C1.50979 56.8574 0.869175 57.4639 0.848071 58.2339L0.180222 82.4957C0.159118 83.2656 0.765696 83.9069 1.53566 83.928L12.5916 84.2324H12.6297C13.3854 84.2324 14.0035 83.6312 14.024 82.8762L14.056 81.7155L16.9282 80.1776C18.0556 79.571 19.3736 79.4267 20.6051 79.7753L37.7568 84.5891C37.7867 84.5979 37.8167 84.6047 37.8473 84.6116C39.087 84.8709 40.3506 85.001 41.6168 85.0003C44.2991 85.0016 46.9501 84.4237 49.388 83.3044C49.4479 83.2772 49.5057 83.2452 49.5609 83.2091L74.4292 67.1236C75.0487 66.7226 75.2489 65.9091 74.886 65.2664C73.0397 61.9905 68.9448 60.7426 65.5852 62.433ZM3.00616 81.179L3.59708 59.7044L11.8652 59.9318L11.2743 81.4071L3.00616 81.179ZM48.1319 80.8141C45.1031 82.1812 41.7203 82.5583 38.4648 81.8932L21.3594 77.0916C19.4342 76.5477 17.3734 76.773 15.6122 77.72L14.1445 78.5063L14.5373 64.2282C19.1884 61.1347 25.1534 60.8168 30.1068 63.3977L31.1327 63.9293C32.9259 64.8552 34.9036 65.3658 36.9208 65.4243L47.0039 65.7014C49.8359 65.7831 52.2411 67.7996 52.8157 70.5745L37.7969 70.1599C37.027 70.1388 36.3864 70.746 36.3646 71.5153C36.3435 72.2853 36.9507 72.9266 37.72 72.9477L54.2944 73.4038H54.3332C55.0882 73.4031 55.7056 72.802 55.7261 72.0477C55.7431 71.4418 55.6981 70.8352 55.5913 70.2388L66.7936 64.9458C66.8045 64.941 66.8153 64.9355 66.8262 64.9301C68.4152 64.1261 70.3364 64.395 71.6435 65.6048L48.1319 80.8141Z" fill="url(#paint2_linear)"/>
<path d="M39.8881 14.6396V1.39425C39.8881 0.624279 39.2638 0 38.4939 0C37.7239 0 37.0996 0.624279 37.0996 1.39425V14.6396C37.0996 15.4095 37.7239 16.0338 38.4939 16.0338C39.2638 16.0338 39.8881 15.4095 39.8881 14.6396Z" fill="url(#paint3_linear)"/>
<path d="M50.3451 14.6391V8.36495C50.3451 7.59498 49.7208 6.9707 48.9509 6.9707C48.1809 6.9707 47.5566 7.59498 47.5566 8.36495V14.6391C47.5566 15.409 48.1809 16.0333 48.9509 16.0333C49.7208 16.0333 50.3451 15.409 50.3451 14.6391Z" fill="url(#paint4_linear)"/>
<path d="M29.4311 14.6391V8.36495C29.4311 7.59498 28.8068 6.9707 28.0368 6.9707C27.2669 6.9707 26.6426 7.59498 26.6426 8.36495V14.6391C26.6426 15.409 27.2669 16.0333 28.0368 16.0333C28.8068 16.0333 29.4311 15.409 29.4311 14.6391Z" fill="url(#paint5_linear)"/>
<defs>
<linearGradient id="paint0_linear" x1="29.4995" y1="-3" x2="10.3207" y2="7.64975" gradientUnits="userSpaceOnUse">
<stop stop-color="#37A8F7"/>
<stop offset="0.410336" stop-color="#6028B7"/>
<stop offset="1" stop-color="#D50185"/>
</linearGradient>
<linearGradient id="paint1_linear" x1="-0.000478093" y1="9.5" x2="-11.5991" y2="44.5375" gradientUnits="userSpaceOnUse">
<stop stop-color="#37A8F7"/>
<stop offset="0.410336" stop-color="#6028B7"/>
<stop offset="1" stop-color="#D50185"/>
</linearGradient>
<linearGradient id="paint2_linear" x1="7.50001" y1="-6.5282e-09" x2="-12.0882" y2="77.8847" gradientUnits="userSpaceOnUse">
<stop stop-color="#37A8F7"/>
<stop offset="0.410336" stop-color="#6028B7"/>
<stop offset="1" stop-color="#D50185"/>
</linearGradient>
<linearGradient id="paint3_linear" x1="28" y1="-22.5" x2="19.9733" y2="-19.3802" gradientUnits="userSpaceOnUse">
<stop stop-color="#37A8F7"/>
<stop offset="0.410336" stop-color="#6028B7"/>
<stop offset="1" stop-color="#D50185"/>
</linearGradient>
<linearGradient id="paint4_linear" x1="42" y1="-5.5" x2="36.6683" y2="-2.07862" gradientUnits="userSpaceOnUse">
<stop stop-color="#37A8F7"/>
<stop offset="0.410336" stop-color="#6028B7"/>
<stop offset="1" stop-color="#D50185"/>
</linearGradient>
<linearGradient id="paint5_linear" x1="19.4995" y1="-5.5" x2="14.3046" y2="-1.6333" gradientUnits="userSpaceOnUse">
<stop stop-color="#37A8F7"/>
<stop offset="0.410336" stop-color="#6028B7"/>
<stop offset="1" stop-color="#D50185"/>
</linearGradient>
</defs>
</svg>
