<svg width="85" height="85" viewBox="0 0 85 85" fill="none" xmlns="http://www.w3.org/2000/svg">
<g clip-path="url(#clip0)">
<path d="M70.5852 62.433L59.6634 67.5933C58.1554 64.7885 55.2628 63.0035 52.0794 62.9136L41.997 62.6365C40.4006 62.5909 38.8341 62.1865 37.4147 61.4533L36.3887 60.9216C31.1358 58.1835 24.8746 58.1903 19.6271 60.9393L19.6911 58.6151C19.7122 57.8452 19.1057 57.2039 18.3357 57.1828L7.27976 56.8785C6.50979 56.8574 5.86918 57.4639 5.84807 58.2339L5.18022 82.4957C5.15912 83.2656 5.7657 83.9069 6.53566 83.928L17.5916 84.2324H17.6297C18.3854 84.2324 19.0035 83.6312 19.024 82.8762L19.056 81.7155L21.9282 80.1776C23.0556 79.571 24.3736 79.4267 25.6051 79.7753L42.7568 84.5891C42.7867 84.5979 42.8167 84.6047 42.8473 84.6116C44.087 84.8709 45.3506 85.001 46.6168 85.0003C49.2991 85.0016 51.9501 84.4237 54.388 83.3044C54.4479 83.2772 54.5057 83.2452 54.5609 83.2091L79.4292 67.1236C80.0487 66.7226 80.2489 65.9091 79.886 65.2664C78.0397 61.9905 73.9448 60.7426 70.5852 62.433ZM8.00616 81.179L8.59708 59.7044L16.8652 59.9318L16.2743 81.4071L8.00616 81.179ZM53.1319 80.8141C50.1031 82.1812 46.7203 82.5583 43.4648 81.8932L26.3594 77.0916C24.4342 76.5477 22.3734 76.773 20.6122 77.72L19.1445 78.5063L19.5373 64.2282C24.1884 61.1347 30.1534 60.8168 35.1068 63.3977L36.1327 63.9293C37.9259 64.8552 39.9036 65.3658 41.9208 65.4243L52.0039 65.7014C54.8359 65.7831 57.2411 67.7996 57.8157 70.5745L42.7969 70.1599C42.027 70.1388 41.3864 70.746 41.3646 71.5153C41.3435 72.2853 41.9507 72.9266 42.72 72.9477L59.2944 73.4038H59.3332C60.0882 73.4031 60.7056 72.802 60.7261 72.0477C60.7431 71.4418 60.6981 70.8352 60.5913 70.2388L71.7936 64.9458C71.8045 64.941 71.8153 64.9355 71.8262 64.9301C73.4152 64.1261 75.3364 64.395 76.6435 65.6048L53.1319 80.8141Z" fill="url(#paint0_linear)"/>
<path d="M64.7031 22.8438H59.65C57.8457 22.8457 56.0749 22.3563 54.5276 21.4279C52.9804 20.4996 51.7152 19.1675 50.8679 17.5745L49.9311 15.818C48.9863 14.0424 47.4364 12.6643 45.5625 11.9338V10.5938C45.5625 9.78152 45.2398 9.00257 44.6655 8.42824C44.0912 7.85391 43.3122 7.53125 42.5 7.53125C41.6878 7.53125 40.9088 7.85391 40.3345 8.42824C39.7602 9.00257 39.4375 9.78152 39.4375 10.5938V11.9338C37.5636 12.6643 36.0137 14.0424 35.0689 15.818L34.1322 17.5745C33.2848 19.1675 32.0196 20.4996 30.4724 21.4279C28.9251 22.3562 27.1543 22.8457 25.35 22.8438H20.2969C20.0938 22.8438 19.8991 22.9244 19.7555 23.068C19.6119 23.2116 19.5313 23.4063 19.5312 23.6094V26.6719C19.5313 26.8749 19.6119 27.0697 19.7555 27.2133C19.8991 27.3568 20.0938 27.4375 20.2969 27.4375H25.3288L22.8231 34.3281H21.8281C21.6251 34.3281 21.4303 34.4088 21.2867 34.5524C21.1432 34.696 21.0625 34.8907 21.0625 35.0938C21.0625 36.7182 21.7078 38.2761 22.8565 39.4248C24.0051 40.5734 25.563 41.2188 27.1875 41.2188C28.812 41.2188 30.3699 40.5734 31.5185 39.4248C32.6672 38.2761 33.3125 36.7182 33.3125 35.0938C33.3125 34.8907 33.2318 34.696 33.0883 34.5524C32.9447 34.4088 32.7499 34.3281 32.5469 34.3281H31.5519L29.0462 27.4375H30.9138C33.1392 27.4378 35.2891 26.63 36.9638 25.1643L38.9787 23.4011C39.125 23.2737 39.2782 23.1543 39.4375 23.0435V43.3349L38.1987 45.8125H36.375C36.2561 45.8125 36.1389 45.8402 36.0326 45.8933C35.9263 45.9465 35.8338 46.0237 35.7625 46.1188L33.6953 48.875H30.25C30.0469 48.875 29.8522 48.9557 29.7086 49.0992C29.565 49.2428 29.4844 49.4376 29.4844 49.6406V52.7031C29.4844 52.9062 29.565 53.1009 29.7086 53.2445C29.8522 53.3881 30.0469 53.4687 30.25 53.4688H54.75C54.9531 53.4687 55.1478 53.3881 55.2914 53.2445C55.435 53.1009 55.5156 52.9062 55.5156 52.7031V49.6406C55.5156 49.4376 55.435 49.2428 55.2914 49.0992C55.1478 48.9557 54.9531 48.875 54.75 48.875H51.3047L49.2375 46.1188C49.1662 46.0237 49.0737 45.9465 48.9674 45.8933C48.8611 45.8402 48.7439 45.8125 48.625 45.8125H46.8013L45.5625 43.3349V23.0435C45.7218 23.1543 45.875 23.2737 46.0213 23.4011H46.0213L48.0363 25.1643C49.7109 26.63 51.8608 27.4378 54.0862 27.4375H55.9538L53.4481 34.3281H52.4531C52.2501 34.3281 52.0553 34.4088 51.9117 34.5524C51.7682 34.696 51.6875 34.8907 51.6875 35.0938C51.6875 36.7182 52.3328 38.2761 53.4815 39.4248C54.6301 40.5734 56.188 41.2188 57.8125 41.2188C59.437 41.2188 60.9949 40.5734 62.1435 39.4248C63.2922 38.2761 63.9375 36.7182 63.9375 35.0938C63.9375 34.8907 63.8568 34.696 63.7133 34.5524C63.5697 34.4088 63.3749 34.3281 63.1719 34.3281H62.1769L59.6712 27.4375H64.7031C64.9062 27.4375 65.1009 27.3568 65.2445 27.2133C65.3881 27.0697 65.4687 26.8749 65.4688 26.6719V23.6094C65.4687 23.4063 65.3881 23.2116 65.2445 23.068C65.1009 22.9244 64.9062 22.8438 64.7031 22.8438ZM40.9688 10.5938C40.9688 10.1876 41.1301 9.79816 41.4172 9.51099C41.7044 9.22383 42.0939 9.0625 42.5 9.0625C42.9061 9.0625 43.2956 9.22383 43.5828 9.51099C43.8699 9.79816 44.0312 10.1876 44.0312 10.5938V11.4998C43.019 11.3126 41.981 11.3126 40.9688 11.4998V10.5938ZM27.1875 39.6875C26.1022 39.6861 25.0524 39.3012 24.2235 38.6007C23.3945 37.9002 22.8399 36.9292 22.6575 35.8594H31.7175C31.5351 36.9292 30.9805 37.9002 30.1515 38.6007C29.3226 39.3012 28.2728 39.6861 27.1875 39.6875ZM29.9225 34.3281H24.4525L26.9582 27.4375H27.4168L29.9225 34.3281ZM53.9844 51.9375H31.0156V50.4062H53.9844V51.9375ZM49.3906 48.875H35.6094L36.7578 47.3438H48.2422L49.3906 48.875ZM44.1121 43.8581L45.0893 45.8125H39.9107L40.8879 43.8581C40.9411 43.7517 40.9688 43.6345 40.9688 43.5156V22.3034C41.9675 22.003 43.0325 22.003 44.0312 22.3034V43.5156C44.0312 43.6345 44.0589 43.7517 44.1121 43.8581ZM57.8125 39.6875C56.7272 39.6861 55.6774 39.3012 54.8485 38.6007C54.0195 37.9002 53.4649 36.9292 53.2825 35.8594H62.3425C62.1601 36.9292 61.6055 37.9002 60.7765 38.6007C59.9476 39.3012 58.8978 39.6861 57.8125 39.6875ZM60.5475 34.3281H55.0775L57.5832 27.4375H58.0418L60.5475 34.3281ZM63.9375 25.9062H54.0862C52.2317 25.9065 50.4401 25.2333 49.0446 24.0119L47.0296 22.2488H47.0296C45.7757 21.1516 44.1661 20.5469 42.5 20.5469C40.8338 20.5469 39.2243 21.1516 37.9704 22.2488L35.9554 24.0119C34.5599 25.2333 32.7683 25.9065 30.9138 25.9062H21.0625V24.375H25.35C27.4319 24.3773 29.4752 23.8125 31.2604 22.7414C33.0457 21.6702 34.5055 20.1331 35.4833 18.295L36.42 16.5386C37.0077 15.4366 37.8839 14.5151 38.9548 13.8726C40.0257 13.23 41.2511 12.8906 42.5 12.8906C43.7489 12.8906 44.9743 13.23 46.0452 13.8726C47.1161 14.5151 47.9922 15.4366 48.58 16.5386L49.5168 18.295C50.4945 20.1331 51.9543 21.6702 53.7396 22.7414C55.5248 23.8125 57.5681 24.3773 59.65 24.375H63.9375V25.9062Z" fill="url(#paint1_linear)"/>
<path d="M42.5 14.4219C42.0457 14.4219 41.6016 14.5566 41.2239 14.809C40.8462 15.0614 40.5518 15.4201 40.378 15.8398C40.2041 16.2595 40.1586 16.7213 40.2473 17.1668C40.3359 17.6124 40.5546 18.0217 40.8759 18.3429C41.1971 18.6641 41.6064 18.8829 42.0519 18.9715C42.4975 19.0601 42.9593 19.0146 43.379 18.8408C43.7987 18.6669 44.1574 18.3725 44.4098 17.9948C44.6622 17.6171 44.7969 17.173 44.7969 16.7187C44.7962 16.1098 44.554 15.526 44.1234 15.0954C43.6928 14.6648 43.109 14.4226 42.5 14.4219ZM42.5 17.4844C42.3486 17.4844 42.2006 17.4395 42.0746 17.3553C41.9487 17.2712 41.8506 17.1516 41.7927 17.0117C41.7347 16.8718 41.7195 16.7179 41.7491 16.5694C41.7786 16.4209 41.8515 16.2844 41.9586 16.1774C42.0657 16.0703 42.2021 15.9974 42.3506 15.9678C42.4992 15.9383 42.6531 15.9535 42.793 16.0114C42.9329 16.0694 43.0525 16.1675 43.1366 16.2934C43.2207 16.4193 43.2656 16.5673 43.2656 16.7187C43.2654 16.9217 43.1847 17.1163 43.0411 17.2599C42.8976 17.4034 42.703 17.4841 42.5 17.4844Z" fill="#467BE1"/>
</g>
<defs>
<linearGradient id="paint0_linear" x1="12.5" y1="-6.5282e-09" x2="-7.08818" y2="77.8847" gradientUnits="userSpaceOnUse">
<stop stop-color="#37A8F7"/>
<stop offset="0.410336" stop-color="#6028B7"/>
<stop offset="1" stop-color="#D50185"/>
</linearGradient>
<linearGradient id="paint1_linear" x1="4.4375" y1="-10.1875" x2="-9.08454" y2="64.823" gradientUnits="userSpaceOnUse">
<stop offset="0.0597224" stop-color="#37A8F7"/>
<stop offset="0.462886" stop-color="#6028B7"/>
<stop offset="1" stop-color="#D50185"/>
</linearGradient>
<clipPath id="clip0">
<rect width="85" height="85" fill="white"/>
</clipPath>
</defs>
</svg>
