<svg width="85" height="85" viewBox="0 0 85 85" fill="none" xmlns="http://www.w3.org/2000/svg">
<g clip-path="url(#clip0)">
<path d="M83.7549 74.5249H78.3459V29.192C78.3459 26.304 75.9965 23.9545 73.1085 23.9545H57.1394C56.4518 23.9545 55.8943 24.512 55.8943 25.1997C55.8943 25.8873 56.4518 26.4448 57.1394 26.4448H73.1085C74.6234 26.4448 75.8557 27.6773 75.8557 29.192V74.5251H71.5939C71.6581 74.0549 71.6919 73.5818 71.6919 73.1086C71.6919 67.2855 66.9543 62.5479 61.1311 62.5479C60.3482 62.5479 59.5664 62.6373 58.7958 62.8145C57.4524 60.226 54.7764 58.5554 51.8156 58.5554C50.8498 58.5554 49.9116 58.7315 49.0284 59.0737C48.6657 55.7925 45.8763 53.2321 42.5 53.2321C39.1237 53.2321 36.3343 55.7925 35.9716 59.0737C35.0884 58.7315 34.1502 58.5554 33.1844 58.5554C30.2236 58.5554 27.5475 60.226 26.2042 62.8145C25.4334 62.6372 24.6518 62.5479 23.8689 62.5479C18.0456 62.5479 13.3081 67.2855 13.3081 73.1086C13.3081 73.5819 13.3418 74.0549 13.4061 74.5251H9.14431V29.192C9.14431 27.6771 10.3766 26.4448 11.8915 26.4448H27.8611C28.5487 26.4448 29.1062 25.8873 29.1062 25.1997C29.1062 24.512 28.5487 23.9545 27.8611 23.9545H11.8915C9.00352 23.9545 6.65407 26.3042 6.65407 29.192V74.5251H1.24512C0.55748 74.5251 0 75.0825 0 75.7702V78.4318C0 80.586 1.75263 82.3384 3.90668 82.3384H81.0933C83.2475 82.3384 85 80.5858 85 78.4318V75.7702C85 75.0824 84.4425 74.5249 83.7549 74.5249ZM82.5098 78.4318C82.5098 79.2129 81.8743 79.8482 81.0933 79.8482H3.90668C3.12558 79.8482 2.49023 79.2127 2.49023 78.4318V77.0153H18.5451C19.2327 77.0153 19.7902 76.4578 19.7902 75.7702C19.7902 75.0825 19.2327 74.5251 18.5451 74.5251H15.9257C15.8412 74.0557 15.7982 73.5819 15.7982 73.1086C15.7982 68.6586 19.4187 65.0381 23.8687 65.0381C24.7551 65.0381 25.6426 65.1898 26.5067 65.489C26.8197 65.5974 27.1626 65.5767 27.4603 65.4316C27.7578 65.2863 27.9853 65.0286 28.0925 64.7154C28.8431 62.5205 30.8894 61.0458 33.1845 61.0458C34.4431 61.0458 35.6384 61.4912 36.6415 62.334C37.065 62.6898 37.6723 62.7237 38.1326 62.417C38.593 62.1104 38.7959 61.537 38.6308 61.0092C38.4884 60.5534 38.422 60.1694 38.422 59.8006C38.422 57.552 40.2515 55.7226 42.5 55.7226C44.7485 55.7226 46.578 57.5521 46.578 59.8006C46.578 60.1694 46.5116 60.5534 46.3692 61.0092C46.2041 61.5372 46.4072 62.1106 46.8674 62.417C47.3277 62.7235 47.935 62.6898 48.3585 62.334C49.3616 61.4913 50.5571 61.0458 51.8155 61.0458C54.1106 61.0458 56.1569 62.5205 56.9075 64.7154C57.0147 65.0286 57.2422 65.2863 57.5397 65.4316C57.8374 65.5768 58.1805 65.5976 58.4933 65.489C59.3574 65.1898 60.2447 65.0381 61.1313 65.0381C65.5815 65.0381 69.2018 68.6586 69.2018 73.1086C69.2018 73.5819 69.1586 74.0557 69.0743 74.5251H23.8692C23.1816 74.5251 22.6241 75.0825 22.6241 75.7702C22.6241 76.4578 23.1816 77.0153 23.8692 77.0153H82.5098V78.4318Z" fill="url(#paint0_linear)"/>
<path d="M26.5 39.2619C25.7173 40.2012 25.2861 41.3921 25.2861 42.6149V46.4927C25.2861 46.9353 25.5212 47.3447 25.9034 47.568C26.0973 47.6812 26.3143 47.7379 26.5312 47.7379C26.7423 47.7379 26.9533 47.6844 27.1432 47.5771L36.0101 42.5739C36.3479 43.1909 36.7062 43.7978 37.0845 44.3936L35.9699 48.8523C35.8768 49.2244 35.9604 49.6183 36.1963 49.9206C36.4323 50.2229 36.7943 50.3996 37.1778 50.3996H47.8242C48.2077 50.3996 48.5697 50.2229 48.8057 49.9206C49.0416 49.6185 49.1253 49.2244 49.0322 48.8523L47.9175 44.3936C48.2959 43.7978 48.6542 43.191 48.992 42.5739L57.8589 47.5771C58.049 47.6844 58.2598 47.7379 58.4708 47.7379C58.6878 47.7379 58.9048 47.6811 59.0987 47.568C59.4809 47.3449 59.716 46.9355 59.716 46.4927V42.6149C59.716 41.3921 59.2848 40.2012 58.502 39.2619L52.5912 32.1712C52.9025 30.3217 53.0619 28.4359 53.0619 26.5307C53.0619 21.99 52.1828 17.6009 50.4491 13.4855C48.777 9.51641 46.3968 5.99522 43.3747 3.01972C42.8901 2.54259 42.1123 2.54259 41.6277 3.01972C38.6056 5.99505 36.2254 9.51624 34.5533 13.4855C32.8196 17.601 31.9405 21.99 31.9405 26.5307C31.9405 28.4329 32.0994 30.3158 32.4097 32.1626L26.5 39.2619ZM27.7764 44.3604V42.6149C27.7764 41.9735 28.0025 41.3489 28.413 40.8562L33.0801 35.2558C33.5464 37.0003 34.1525 38.7016 34.8956 40.3435L27.7764 44.3604ZM38.7724 47.9092L39.4806 45.0763H45.5211L46.2293 47.9092H38.7724ZM56.5885 40.8562C56.9991 41.3489 57.2252 41.9735 57.2252 42.6149V44.3604L50.106 40.3434C50.8489 38.7015 51.4552 37.0003 51.9215 35.2556L56.5885 40.8562ZM42.5008 5.6929C44.5918 7.94059 46.3163 10.5178 47.627 13.3084H37.3746C38.6853 10.5178 40.4098 7.94059 42.5008 5.6929ZM36.337 15.7984H48.6645C49.9094 19.1926 50.5711 22.8315 50.5711 26.5305C50.5711 32.2561 49.0308 37.7919 46.11 42.5859H38.8914C35.9706 37.7919 34.4303 32.2561 34.4303 26.5305C34.4303 22.8315 35.0922 19.1928 36.337 15.7984Z" fill="url(#paint1_linear)"/>
<path d="M47.7376 25.1993C47.7376 22.3113 45.3882 19.9619 42.5002 19.9619C39.6121 19.9619 37.2627 22.3115 37.2627 25.1993C37.2627 28.0872 39.6121 30.4368 42.5002 30.4368C45.3882 30.4368 47.7376 28.0874 47.7376 25.1993ZM39.7529 25.1993C39.7529 23.6845 40.9853 22.4521 42.5002 22.4521C44.015 22.4521 45.2474 23.6846 45.2474 25.1993C45.2474 26.7141 44.015 27.9466 42.5002 27.9466C40.9853 27.9466 39.7529 26.7142 39.7529 25.1993Z" fill="url(#paint2_linear)"/>
</g>
<defs>
<linearGradient id="paint0_linear" x1="-8.99998" y1="7.99946" x2="-3.12325" y2="81.5057" gradientUnits="userSpaceOnUse">
<stop offset="0.176852" stop-color="#37A8F7"/>
<stop offset="0.527238" stop-color="#6028B7"/>
<stop offset="1" stop-color="#D50185"/>
</linearGradient>
<linearGradient id="paint1_linear" x1="27.1472" y1="0.825808" x2="31.4214" y2="47.6821" gradientUnits="userSpaceOnUse">
<stop offset="0.176852" stop-color="#37A8F7"/>
<stop offset="0.527238" stop-color="#6028B7"/>
<stop offset="1" stop-color="#D50185"/>
</linearGradient>
<linearGradient id="paint2_linear" x1="37.8289" y1="19.559" x2="38.508" y2="29.8814" gradientUnits="userSpaceOnUse">
<stop offset="0.176852" stop-color="#37A8F7"/>
<stop offset="0.527238" stop-color="#6028B7"/>
<stop offset="1" stop-color="#D50185"/>
</linearGradient>
<clipPath id="clip0">
<rect width="85" height="85" fill="white"/>
</clipPath>
</defs>
</svg>
