<svg width="85" height="85" viewBox="0 0 85 85" fill="none" xmlns="http://www.w3.org/2000/svg">

<style type="text/css">
	.st0{fill:#474D59;}
</style>
<g>
	<path class="st0" d="M261.4,480.8c-1.6,0-3.2-0.5-4.5-1.7l-45.2-38.4c-1.6-1.3-2.5-3.3-2.5-5.3c0-2,0.9-4,2.5-5.3l45.2-38.4
		c2.9-2.5,7.3-2.1,9.8,0.8c2.5,2.9,2.1,7.3-0.8,9.8l-38.9,33.1l38.9,33.1c2.9,2.5,3.3,6.9,0.8,9.8
		C265.4,480,263.4,480.8,261.4,480.8z"/>
	<path class="st0" d="M350.6,480.8c-2,0-3.9-0.8-5.3-2.5c-2.5-2.9-2.1-7.3,0.8-9.8l38.9-33.1L346,402.3c-2.9-2.5-3.3-6.9-0.8-9.8
		c2.5-2.9,6.9-3.3,9.8-0.8l45.1,38.4c1.6,1.3,2.5,3.3,2.5,5.3c0,2-0.9,4-2.5,5.3l-45.1,38.4C353.8,480.3,352.2,480.8,350.6,480.8z"
		/>
	<path class="st0" d="M290,509.6c-0.5,0-1-0.1-1.4-0.2c-3.8-0.8-6.2-4.5-5.4-8.3l28.1-133.6c0.8-3.8,4.5-6.2,8.3-5.4
		c3.8,0.8,6.2,4.5,5.4,8.3l-28.1,133.6C296.1,507.4,293.2,509.6,290,509.6z"/>
	<path class="st0" d="M470.5,582.4H141.5c-25.8,0-46.8-21-46.8-46.8V256.4c0-25.8,21-46.8,46.8-46.8h328.9c25.8,0,46.8,21,46.8,46.8
		v279.2C517.3,561.4,496.3,582.4,470.5,582.4z M141.5,223.5c-18.1,0-32.9,14.8-32.9,32.9v279.2c0,18.1,14.8,32.9,32.9,32.9h328.9
		c18.1,0,32.9-14.8,32.9-32.9V256.4c0-18.1-14.8-32.9-32.9-32.9H141.5z"/>
	<path class="st0" d="M510.3,321.3H101.7c-3.9,0-7-3.1-7-7c0-3.9,3.1-7,7-7h408.7c3.9,0,7,3.1,7,7
		C517.3,318.2,514.2,321.3,510.3,321.3z"/>
</g>
</svg>
