<?xml version="1.0" encoding="utf-8"?>
<!-- Generator: Adobe Illustrator 24.1.1, SVG Export Plug-In . SVG Version: 6.00 Build 0)  -->
<svg version="1.1" id="Слой_1" xmlns="http://www.w3.org/2000/svg" xmlns:xlink="http://www.w3.org/1999/xlink" x="0px" y="0px"
	 viewBox="0 0 612 792" style="enable-background:new 0 0 612 792;" xml:space="preserve">
<style type="text/css">
	.st0{fill:#474D59;}
	.st1{fill:#474D59;}
	.st2{fill:#474D59;}
	.st3{fill:#474D59;}
	.st4{fill:#474D59;}
	.st5{fill:#474D59;}
</style>
<g>
	<linearGradient id="SVGID_1_" gradientUnits="userSpaceOnUse" x1="127.4069" y1="605.6835" x2="499.4069" y2="287.6835">
		<stop  offset="0" style="stop-color:#930784"/>
		<stop  offset="1" style="stop-color:#3D87ED"/>
	</linearGradient>
<path class="st0" d="M38.6,46.4c-0.2,0-0.3,0-0.5,0c-1.6-0.2-2.8-1.5-2.8-3.1c0-0.8-0.6-1.4-1.4-1.4c-0.8,0-1.4,0.6-1.4,1.4
	c0,2.7,1.8,5,4.4,5.7v1.4c0,0.8,0.6,1.4,1.4,1.4c0.8,0,1.4-0.6,1.4-1.4v-1.3c3-0.6,5-3.4,4.7-6.4c-0.3-3-2.9-5.3-5.9-5.3
	c-1.7,0-3.2-1.4-3.2-3.2c0-1.7,1.4-3.2,3.2-3.2c1.7,0,3.2,1.4,3.2,3.2c0,0.8,0.6,1.4,1.4,1.4c0.8,0,1.4-0.6,1.4-1.4
	c0-2.8-2-5.2-4.7-5.8V27c0-0.8-0.6-1.4-1.4-1.4c-0.8,0-1.4,0.6-1.4,1.4v1.4c-2.9,0.8-4.7,3.6-4.3,6.5c0.4,3,2.9,5.2,5.9,5.2
	c1.7,0,3.1,1.4,3.2,3.1C41.7,44.9,40.3,46.3,38.6,46.4z"/>
<path class="st0" d="M18.3,38.8c0,11.2,9.1,20.2,20.2,20.2s20.2-9.1,20.2-20.2s-9.1-20.2-20.2-20.2C27.3,18.6,18.3,27.6,18.3,38.8z
	 M38.5,21.3c9.6,0,17.4,7.8,17.4,17.4s-7.8,17.4-17.4,17.4s-17.4-7.8-17.4-17.4C21.1,29.2,28.9,21.4,38.5,21.3z"/>
<path class="st0" d="M65.6,62.4l-10.9,5.2c-1.5-2.8-4.4-4.6-7.6-4.7L37,62.6c-1.6,0-3.2-0.5-4.6-1.2l-1-0.5
	c-5.3-2.7-11.5-2.7-16.8,0l0.1-2.3c0-0.8-0.6-1.4-1.4-1.4L2.3,56.9c-0.8,0-1.4,0.6-1.4,1.4L0.2,82.5c0,0.8,0.6,1.4,1.4,1.4l11.1,0.3
	h0c0.8,0,1.4-0.6,1.4-1.4l0-1.2l2.9-1.5c1.1-0.6,2.4-0.8,3.7-0.4l17.2,4.8c0,0,0.1,0,0.1,0c1.2,0.3,2.5,0.4,3.8,0.4
	c2.7,0,5.3-0.6,7.8-1.7c0.1,0,0.1-0.1,0.2-0.1l24.9-16.1c0.6-0.4,0.8-1.2,0.5-1.9C73,62,68.9,60.7,65.6,62.4z M3,81.2l0.6-21.5
	l8.3,0.2l-0.6,21.5L3,81.2z M48.1,80.8c-3,1.4-6.4,1.7-9.7,1.1l-17.1-4.8c-1.9-0.5-4-0.3-5.7,0.6l-1.5,0.8l0.4-14.3
	c4.7-3.1,10.6-3.4,15.6-0.8l1,0.5c1.8,0.9,3.8,1.4,5.8,1.5L47,65.7c2.8,0.1,5.2,2.1,5.8,4.9l-15-0.4c-0.8,0-1.4,0.6-1.4,1.4
	c0,0.8,0.6,1.4,1.4,1.4l16.6,0.5h0c0.8,0,1.4-0.6,1.4-1.4c0-0.6,0-1.2-0.1-1.8l11.2-5.3c0,0,0,0,0,0c1.6-0.8,3.5-0.5,4.8,0.7
	L48.1,80.8z"/>
<path class="st0" d="M39.9,14.6V1.4c0-0.8-0.6-1.4-1.4-1.4c-0.8,0-1.4,0.6-1.4,1.4v13.2c0,0.8,0.6,1.4,1.4,1.4
	C39.3,16,39.9,15.4,39.9,14.6z"/>
<path class="st0" d="M50.3,14.6V8.4C50.3,7.6,49.7,7,49,7c-0.8,0-1.4,0.6-1.4,1.4v6.3c0,0.8,0.6,1.4,1.4,1.4
	C49.7,16,50.3,15.4,50.3,14.6z"/>
<path class="st0" d="M29.4,14.6V8.4C29.4,7.6,28.8,7,28,7c-0.8,0-1.4,0.6-1.4,1.4v6.3c0,0.8,0.6,1.4,1.4,1.4
	C28.8,16,29.4,15.4,29.4,14.6z"/>
</g>
</svg>
