<svg width="85" height="85" viewBox="0 0 85 85" fill="none" xmlns="http://www.w3.org/2000/svg">
<path d="M33.5372 59.5667C33.2161 59.5667 32.8927 59.4563 32.6288 59.2316L23.548 51.4993C23.2348 51.2323 23.0547 50.8423 23.0547 50.4304C23.0547 50.0193 23.2356 49.6293 23.548 49.3623L32.6288 41.63C33.2185 41.1272 34.1041 41.1985 34.6069 41.7882C35.1088 42.3786 35.0384 43.2643 34.4479 43.7663L26.6225 50.4304L34.4479 57.0945C35.0384 57.5973 35.1088 58.4829 34.6069 59.0726C34.3289 59.3992 33.9342 59.5667 33.5372 59.5667Z" fill="url(#paint0_linear)"/>
<path d="M51.4636 59.5667C51.0665 59.5667 50.6719 59.3992 50.3946 59.0726C49.8919 58.4829 49.9632 57.5973 50.5528 57.0945L58.3783 50.4304L50.5528 43.7663C49.9632 43.2643 49.8919 42.3786 50.3946 41.7882C50.8966 41.1985 51.7831 41.1272 52.372 41.63L61.4527 49.3623C61.7659 49.6293 61.946 50.0193 61.946 50.4304C61.946 50.8423 61.7659 51.2323 61.4527 51.4993L52.372 59.2316C52.1081 59.4563 51.7846 59.5667 51.4636 59.5667Z" fill="url(#paint1_linear)"/>
<path d="M39.2854 65.366C39.1891 65.366 39.092 65.3558 38.9941 65.3354C38.2361 65.1757 37.7505 64.431 37.9103 63.6729L43.5697 36.8027C43.7294 36.0447 44.4734 35.5591 45.2322 35.7189C45.9902 35.8786 46.4758 36.6226 46.316 37.3814L40.6566 64.2516C40.5172 64.9126 39.9346 65.366 39.2854 65.366Z" fill="url(#paint2_linear)"/>
<path d="M75.5778 80.0054H9.42217C4.22713 80.0054 0 75.779 0 70.5832V14.4339C0 9.23885 4.22713 5.01172 9.42217 5.01172H75.5778C80.7729 5.01172 85 9.23885 85 14.4339V70.5832C85 75.779 80.7729 80.0054 75.5778 80.0054ZM9.42217 7.81832C5.77452 7.81832 2.8066 10.7862 2.8066 14.4339V70.5832C2.8066 74.2308 5.77452 77.1988 9.42217 77.1988H75.5778C79.2255 77.1988 82.1934 74.2308 82.1934 70.5832V14.4339C82.1934 10.7862 79.2255 7.81832 75.5778 7.81832H9.42217Z" fill="url(#paint3_linear)"/>
<path d="M83.5967 27.4824H1.4033C0.62804 27.4824 0 26.8543 0 26.0791C0 25.3046 0.62804 24.6758 1.4033 24.6758H83.5967C84.372 24.6758 85 25.3046 85 26.0791C85 26.8543 84.372 27.4824 83.5967 27.4824Z" fill="url(#paint4_linear)"/>
<defs>
<linearGradient id="paint0_linear" x1="35.0005" y1="16.5" x2="12.592" y2="24.1126" gradientUnits="userSpaceOnUse">
<stop stop-color="#37A8F7"/>
<stop offset="0.410336" stop-color="#6028B7"/>
<stop offset="1" stop-color="#D50185"/>
</linearGradient>
<linearGradient id="paint1_linear" x1="64.5" y1="18" x2="37.9375" y2="28.2772" gradientUnits="userSpaceOnUse">
<stop stop-color="#37A8F7"/>
<stop offset="0.410336" stop-color="#6028B7"/>
<stop offset="1" stop-color="#D50185"/>
</linearGradient>
<linearGradient id="paint2_linear" x1="46" y1="8.5" x2="31.1271" y2="10.6378" gradientUnits="userSpaceOnUse">
<stop stop-color="#37A8F7"/>
<stop offset="0.410336" stop-color="#6028B7"/>
<stop offset="1" stop-color="#D50185"/>
</linearGradient>
<linearGradient id="paint3_linear" x1="-19.5" y1="-10.5" x2="-30.701" y2="72.1944" gradientUnits="userSpaceOnUse">
<stop stop-color="#37A8F7"/>
<stop offset="0.410336" stop-color="#6028B7"/>
<stop offset="1" stop-color="#D50185"/>
</linearGradient>
<linearGradient id="paint4_linear" x1="80.8769" y1="24.6758" x2="59.4089" y2="59.3332" gradientUnits="userSpaceOnUse">
<stop stop-color="#37A8F7"/>
<stop offset="0.410336" stop-color="#6028B7"/>
<stop offset="1" stop-color="#D50185"/>
</linearGradient>
</defs>
</svg>
