<svg width="40" height="40" viewBox="0 0 40 40" fill="none" xmlns="http://www.w3.org/2000/svg">
<path fill-rule="evenodd" clip-rule="evenodd" d="M25.365 11.6148C25.4811 11.4984 25.619 11.406 25.7709 11.343C25.9228 11.28 26.0856 11.2476 26.25 11.2476C26.4144 11.2476 26.5772 11.28 26.7291 11.343C26.8809 11.406 27.0189 11.4984 27.135 11.6148L34.635 19.1148C34.7514 19.2309 34.8437 19.3688 34.9068 19.5207C34.9698 19.6726 35.0022 19.8354 35.0022 19.9998C35.0022 20.1642 34.9698 20.327 34.9068 20.4789C34.8437 20.6307 34.7514 20.7687 34.635 20.8848L27.135 28.3848C26.9003 28.6195 26.5819 28.7514 26.25 28.7514C25.918 28.7514 25.5997 28.6195 25.365 28.3848C25.1303 28.1501 24.9984 27.8317 24.9984 27.4998C24.9984 27.1679 25.1303 26.8495 25.365 26.6148L31.9825 19.9998L25.365 13.3848C25.2486 13.2687 25.1562 13.1307 25.0932 12.9789C25.0302 12.827 24.9977 12.6642 24.9977 12.4998C24.9977 12.3354 25.0302 12.1726 25.0932 12.0207C25.1562 11.8688 25.2486 11.7309 25.365 11.6148Z" fill="white"/>
<path fill-rule="evenodd" clip-rule="evenodd" d="M5 20C5 19.6685 5.1317 19.3505 5.36612 19.1161C5.60054 18.8817 5.91848 18.75 6.25 18.75H32.5C32.8315 18.75 33.1495 18.8817 33.3839 19.1161C33.6183 19.3505 33.75 19.6685 33.75 20C33.75 20.3315 33.6183 20.6495 33.3839 20.8839C33.1495 21.1183 32.8315 21.25 32.5 21.25H6.25C5.91848 21.25 5.60054 21.1183 5.36612 20.8839C5.1317 20.6495 5 20.3315 5 20Z" fill="white"/>
</svg>
