<svg width="85" height="85" viewBox="0 0 85 85" fill="none" xmlns="http://www.w3.org/2000/svg">
<g clip-path="url(#clip0)">
<path d="M43.6091 46.3892C43.4518 46.3552 43.2905 46.349 43.1312 46.3729C41.5347 46.187 40.3304 44.8363 40.3277 43.2297C40.3277 42.4597 39.7034 41.8354 38.9335 41.8354C38.1635 41.8354 37.5392 42.4597 37.5392 43.2297C37.5433 45.9126 39.3378 48.2627 41.9248 48.9728V50.367C41.9248 51.137 42.5491 51.7613 43.3191 51.7613C44.089 51.7613 44.7133 51.137 44.7133 50.367V49.0572C47.6992 48.4322 49.7286 45.6512 49.4148 42.617C49.1003 39.5827 46.5439 37.2769 43.4933 37.2762C41.7451 37.2762 40.3277 35.8588 40.3277 34.1106C40.3277 32.3623 41.7451 30.9449 43.4933 30.9449C45.2416 30.9449 46.659 32.3623 46.659 34.1106C46.659 34.8805 47.2833 35.5048 48.0532 35.5048C48.8232 35.5048 49.4475 34.8805 49.4475 34.1106C49.4434 31.2935 47.4698 28.8638 44.7133 28.2824V27.0134C44.7133 26.2434 44.089 25.6191 43.3191 25.6191C42.5491 25.6191 41.9248 26.2434 41.9248 27.0134V28.3675C39.0478 29.1531 37.1961 31.9463 37.5923 34.9023C37.9885 37.8583 40.5108 40.0647 43.4933 40.064C45.2184 40.064 46.6256 41.4453 46.6569 43.1698C46.6889 44.8942 45.3328 46.3266 43.6091 46.3892Z" fill="#6A6E74"/>
<path d="M23.2754 38.7775C23.2754 49.9437 32.3271 58.9954 43.4933 58.9954C54.6595 58.9954 63.7112 49.9437 63.7112 38.7775C63.7112 27.6113 54.6595 18.5596 43.4933 18.5596C32.3325 18.5718 23.2883 27.6167 23.2754 38.7775ZM43.4933 21.3481C53.1196 21.3481 60.9227 29.1512 60.9227 38.7775C60.9227 48.4038 53.1196 56.2069 43.4933 56.2069C33.867 56.2069 26.0639 48.4038 26.0639 38.7775C26.0748 29.156 33.8718 21.359 43.4933 21.3481Z" fill="#6A6E74"/>
<path d="M70.5852 62.433L59.6634 67.5933C58.1554 64.7885 55.2628 63.0035 52.0794 62.9136L41.997 62.6365C40.4006 62.5909 38.8341 62.1865 37.4147 61.4533L36.3887 60.9216C31.1358 58.1835 24.8746 58.1903 19.6271 60.9393L19.6911 58.6151C19.7122 57.8452 19.1057 57.2039 18.3357 57.1828L7.27976 56.8785C6.50979 56.8574 5.86918 57.4639 5.84807 58.2339L5.18022 82.4957C5.15912 83.2656 5.7657 83.9069 6.53566 83.928L17.5916 84.2324H17.6297C18.3854 84.2324 19.0035 83.6312 19.024 82.8762L19.056 81.7155L21.9282 80.1776C23.0556 79.571 24.3736 79.4267 25.6051 79.7753L42.7568 84.5891C42.7867 84.5979 42.8167 84.6047 42.8473 84.6116C44.087 84.8709 45.3506 85.001 46.6168 85.0003C49.2991 85.0016 51.9501 84.4237 54.388 83.3044C54.4479 83.2772 54.5057 83.2452 54.5609 83.2091L79.4292 67.1236C80.0487 66.7226 80.2489 65.9091 79.886 65.2664C78.0397 61.9905 73.9448 60.7426 70.5852 62.433ZM8.00616 81.179L8.59708 59.7044L16.8652 59.9318L16.2743 81.4071L8.00616 81.179ZM53.1319 80.8141C50.1031 82.1812 46.7203 82.5583 43.4648 81.8932L26.3594 77.0916C24.4342 76.5477 22.3734 76.773 20.6122 77.72L19.1445 78.5063L19.5373 64.2282C24.1884 61.1347 30.1534 60.8168 35.1068 63.3977L36.1327 63.9293C37.9259 64.8552 39.9036 65.3658 41.9208 65.4243L52.0039 65.7014C54.8359 65.7831 57.2411 67.7996 57.8157 70.5745L42.7969 70.1599C42.027 70.1388 41.3864 70.746 41.3646 71.5153C41.3435 72.2853 41.9507 72.9266 42.72 72.9477L59.2944 73.4038H59.3332C60.0882 73.4031 60.7056 72.802 60.7261 72.0477C60.7431 71.4418 60.6981 70.8352 60.5913 70.2388L71.7936 64.9458C71.8045 64.941 71.8153 64.9355 71.8262 64.9301C73.4152 64.1261 75.3364 64.395 76.6435 65.6048L53.1319 80.8141Z" fill="#6A6E74"/>
<path d="M44.8881 14.6396V1.39425C44.8881 0.624279 44.2638 0 43.4939 0C42.7239 0 42.0996 0.624279 42.0996 1.39425V14.6396C42.0996 15.4095 42.7239 16.0338 43.4939 16.0338C44.2638 16.0338 44.8881 15.4095 44.8881 14.6396Z" fill="#6A6E74"/>
<path d="M55.3451 14.6391V8.36495C55.3451 7.59498 54.7208 6.9707 53.9509 6.9707C53.1809 6.9707 52.5566 7.59498 52.5566 8.36495V14.6391C52.5566 15.409 53.1809 16.0333 53.9509 16.0333C54.7208 16.0333 55.3451 15.409 55.3451 14.6391Z" fill="#6A6E74"/>
<path d="M34.4311 14.6391V8.36495C34.4311 7.59498 33.8068 6.9707 33.0368 6.9707C32.2669 6.9707 31.6426 7.59498 31.6426 8.36495V14.6391C31.6426 15.409 32.2669 16.0333 33.0368 16.0333C33.8068 16.0333 34.4311 15.409 34.4311 14.6391Z" fill="#6A6E74"/>
</g>
<defs>
<clipPath id="clip0">
<rect width="85" height="85" fill="white"/>
</clipPath>
</defs>
</svg>
