<svg width="82" height="82" viewBox="0 0 82 82" fill="none" xmlns="http://www.w3.org/2000/svg">
<path d="M49.9983 46.9223C52.4619 49.0067 55.585 50.1495 58.8121 50.1474C59.2227 50.1474 59.6352 50.129 60.0496 50.0923C61.8548 49.9362 63.6109 49.4225 65.2156 48.5811C66.8203 47.7397 68.2417 46.5875 69.3968 45.1915C70.866 43.4301 71.8745 41.3311 72.3316 39.0833C72.7887 36.8355 72.6801 34.5094 72.0155 32.314C71.9731 32.1731 71.9027 32.0422 71.8085 31.9291C71.7143 31.8161 71.5983 31.7231 71.4674 31.656C71.3365 31.5888 71.1933 31.5487 71.0466 31.5381C70.8998 31.5275 70.7524 31.5466 70.6132 31.5943L59.2581 35.3381L57.6277 23.9683C57.6203 23.7311 57.5364 23.5026 57.3884 23.3171C57.2932 23.1974 57.1737 23.0993 57.0377 23.0293C56.9018 22.9593 56.7525 22.9189 56.5998 22.9108C54.9662 22.8259 51.7106 23.3063 48.2557 27.4715C45.9163 30.2858 44.7864 33.9117 45.1129 37.5567C45.4393 41.2016 47.1956 44.5691 49.9979 46.9228L49.9983 46.9223ZM49.7354 28.698C52.2325 25.6871 54.5144 24.9755 55.8131 24.848L57.48 36.472C57.4858 36.6429 57.5315 36.81 57.6134 36.96C57.6954 37.11 57.8114 37.2388 57.9522 37.3359C58.0929 37.4329 58.2544 37.4957 58.4238 37.5191C58.5931 37.5425 58.7656 37.5259 58.9274 37.4706L70.3917 33.6909C70.7969 35.4775 70.7847 37.3336 70.3561 39.1148C69.9275 40.896 69.0941 42.5544 67.9205 43.9612C65.8934 46.3625 62.9969 47.8621 59.866 48.1312C56.735 48.4002 53.6251 47.4168 51.2181 45.3966C48.8111 43.3763 47.3034 40.484 47.0255 37.3538C46.7476 34.2237 47.7222 31.111 49.7357 28.6983L49.7354 28.698Z" fill="#6A6E74"/>
<path d="M59.7603 32.4257C59.7846 32.5965 59.8456 32.7599 59.9391 32.9049C60.0326 33.0498 60.1563 33.1728 60.3018 33.2653C60.4474 33.3579 60.6112 33.4179 60.7821 33.4411C60.953 33.4644 61.1269 33.4503 61.2918 33.4L69.9593 30.7542C70.1131 30.7102 70.2564 30.6357 70.3809 30.5354C70.5054 30.435 70.6085 30.3106 70.6842 30.1697C70.7598 30.0288 70.8064 29.8742 70.8212 29.7149C70.8361 29.5557 70.8188 29.3951 70.7705 29.2426C70.5132 28.4282 69.7295 26.3477 68.0197 24.6199C65.8004 22.3777 62.8306 21.5737 59.4331 22.2946C59.1432 22.3556 58.8864 22.5224 58.7127 22.7623C58.5391 23.0023 58.4609 23.2984 58.4936 23.5928L59.7603 32.4257ZM66.6537 25.9715C67.5275 26.8854 68.2176 27.9586 68.6867 29.1328L61.5423 31.3136L60.5013 24.0541C62.9692 23.6948 65.0366 24.3383 66.6537 25.9719V25.9715Z" fill="#6A6E74"/>
<path d="M5.76562 64.829H36.7408V72.7228H26.5549C26.3 72.7228 26.0556 72.824 25.8754 73.0042C25.6952 73.1844 25.5939 73.4289 25.5939 73.6837V77.8359C25.5939 78.0908 25.6952 78.3352 25.8754 78.5154C26.0556 78.6956 26.3 78.7969 26.5549 78.7969H55.9656C56.2205 78.7969 56.4649 78.6956 56.6451 78.5154C56.8253 78.3352 56.9266 78.0908 56.9266 77.8359V73.6837C56.9266 73.4289 56.8253 73.1844 56.6451 73.0042C56.4649 72.824 56.2205 72.7228 55.9656 72.7228H45.7797V64.829H76.2344C77.3384 64.8277 78.3968 64.3886 79.1774 63.608C79.958 62.8273 80.3972 61.7689 80.3984 60.6649V12.1719C80.3972 11.0679 79.958 10.0095 79.1774 9.22884C78.3968 8.4482 77.3384 8.00908 76.2344 8.00781H5.76562C4.66164 8.00908 3.60323 8.4482 2.82259 9.22884C2.04195 10.0095 1.60283 11.0679 1.60156 12.1719V60.6649C1.60283 61.7689 2.04195 62.8273 2.82259 63.608C3.60323 64.3886 4.66164 64.8277 5.76562 64.829ZM55.0047 76.875H27.5163V74.6447H55.0047V76.875ZM43.8578 72.7228H38.6627V64.829H43.8583L43.8578 72.7228ZM76.2344 62.9071H5.76562C5.17117 62.9065 4.60125 62.67 4.18091 62.2497C3.76056 61.8293 3.52412 61.2594 3.52344 60.6649V55.2196H78.4766V60.6649C78.4759 61.2594 78.2394 61.8293 77.8191 62.2497C77.3987 62.67 76.8288 62.9065 76.2344 62.9071ZM15.8593 53.2978H10.947V25.2975H15.8593V53.2978ZM26.1058 53.2978H21.1933V31.9009H26.1055L26.1058 53.2978ZM36.3523 53.2978H31.4398V40.1545H36.3523V53.2978ZM5.76562 9.92969H76.2344C76.8288 9.93032 77.3988 10.1668 77.8191 10.5871C78.2395 11.0075 78.4759 11.5774 78.4766 12.1719V53.2978H38.2741V39.5243C38.274 39.1822 38.1381 38.8542 37.8963 38.6121C37.6546 38.3701 37.3267 38.2339 36.9846 38.2333H30.8075C30.4654 38.2339 30.1375 38.3701 29.8957 38.6121C29.654 38.8542 29.5181 39.1822 29.5179 39.5243V53.2978H28.0273V31.2699C28.0272 30.9278 27.8913 30.5997 27.6495 30.3576C27.4078 30.1156 27.0799 29.9793 26.7378 29.9787H20.561C20.2189 29.9793 19.891 30.1156 19.6492 30.3576C19.4075 30.5997 19.2716 30.9278 19.2714 31.2699V53.2978H17.782V24.6668C17.7818 24.3247 17.646 23.9966 17.4042 23.7545C17.1624 23.5125 16.8345 23.3762 16.4924 23.3756H10.3141C9.97195 23.3762 9.64404 23.5125 9.40228 23.7545C9.16052 23.9966 9.02465 24.3247 9.02448 24.6668V53.2978H3.52344V12.1719C3.52407 11.5774 3.76051 11.0075 4.18086 10.5871C4.60122 10.1668 5.17115 9.93032 5.76562 9.92969Z" fill="#6A6E74"/>
</svg>
