<svg width="80" height="80" viewBox="0 0 80 80" fill="none" xmlns="http://www.w3.org/2000/svg">
<g clip-path="url(#clip0)">
<path d="M70.2943 16.1978L40.2268 0.17628C39.7807 -0.0617872 39.2461 -0.0584461 38.8034 0.184633L9.56787 16.2062C9.08839 16.4693 8.79102 16.9721 8.79102 17.5193V38.4475C8.80856 55.651 19.0012 71.2148 34.7637 78.107L38.8218 79.8754C39.201 80.0408 39.6329 80.0416 40.0129 79.8771L44.5855 77.9024C60.6404 71.1596 71.0853 55.4455 71.087 38.0323V17.5193C71.087 16.9663 70.7821 16.4576 70.2943 16.1978ZM68.0932 38.0323C68.0898 54.2451 58.3625 68.8742 43.4135 75.1483L43.4035 75.1533L39.4215 76.8724L35.9616 75.363C21.2891 68.9477 11.8007 54.4615 11.784 38.4475V18.4056L39.5326 3.19765L68.0932 18.4164V38.0323Z" fill="#6A6E74"/>
<path d="M28.4885 37.4769C27.9513 36.8479 27.0066 36.7735 26.3776 37.3106C25.7486 37.8469 25.6742 38.7925 26.2114 39.4207L34.1185 48.6803C34.6465 49.2984 35.5712 49.3828 36.201 48.8699L54.6166 33.8875C55.2581 33.3662 55.355 32.4232 54.8329 31.7816C54.3117 31.1409 53.3686 31.0432 52.727 31.5653L35.4459 45.6238L28.4885 37.4769Z" fill="#6A6E74"/>
</g>
<defs>
<clipPath id="clip0">
<rect width="80" height="80" fill="white"/>
</clipPath>
</defs>
</svg>
